<svg width="369" height="470" viewBox="0 0 369 470" fill="none" xmlns="http://www.w3.org/2000/svg">
<g clip-path="url(#clip0_243_3)">
<rect width="369" height="470" fill="url(#paint0_linear_243_3)"/>
<path fill-rule="evenodd" clip-rule="evenodd" d="M-3.24836 404.913C-7.22244 404.875 -11.1942 404.533 -15.1256 403.887L-78.9009 340.112C-79.5469 336.18 -79.8889 332.209 -79.9267 328.235L-3.24836 404.913ZM-57.2534 382.24C-65.6082 373.885 -71.6544 364.096 -75.392 353.665L-28.6786 400.378C-39.1094 396.641 -48.8986 390.594 -57.2534 382.24ZM6.2997 404.417C9.40453 404.064 12.4921 403.523 15.5439 402.794L-77.8078 309.442C-78.5363 312.494 -79.0773 315.582 -79.4307 318.687L6.2997 404.417ZM30.9737 397.326C28.4636 398.53 25.9021 399.59 23.3013 400.507L-75.5212 301.685C-74.604 299.084 -73.5436 296.523 -72.3401 294.012L30.9737 397.326ZM37.4947 393.803C39.7074 392.466 41.8676 391.008 43.9659 389.43L-64.4437 281.02C-66.0222 283.119 -67.48 285.279 -68.8172 287.492L37.4947 393.803ZM52.2397 382.24C51.331 383.148 50.4054 384.03 49.4638 384.884L-59.8975 275.522C-59.0435 274.581 -58.1621 273.655 -57.2534 272.747C-56.3428 271.836 -55.4152 270.953 -54.4715 270.097L54.8892 379.458C54.0335 380.401 53.1503 381.329 52.2397 382.24ZM59.4348 373.959C61.0165 371.856 62.4769 369.691 63.8162 367.474L-42.4873 261.17C-44.7051 262.509 -46.8702 263.97 -48.9731 265.551L59.4348 373.959ZM70.5038 353.312C69.5902 355.901 68.5347 358.451 67.3374 360.951L-35.9645 257.649C-33.4651 256.451 -30.9146 255.396 -28.3253 254.482L70.5038 353.312ZM72.7914 345.555C73.522 342.496 74.0642 339.402 74.418 336.29L-11.304 250.568C-14.4158 250.922 -17.5103 251.464 -20.5689 252.195L72.7914 345.555ZM73.891 314.898C74.5339 318.818 74.8745 322.778 74.9128 326.741L-1.75476 250.073C2.20781 250.112 6.16801 250.452 10.0883 251.095L73.891 314.898ZM70.3892 301.352C66.6525 290.91 60.6027 281.11 52.2397 272.747C43.8767 264.384 34.0764 258.334 23.6341 254.597L70.3892 301.352Z" fill="url(#paint1_linear_243_3)"/>
<path fill-rule="evenodd" clip-rule="evenodd" d="M-3.24836 404.913C-7.22244 404.875 -11.1942 404.533 -15.1256 403.887L-78.9009 340.112C-79.5469 336.18 -79.8889 332.209 -79.9267 328.235L-3.24836 404.913ZM-57.2534 382.24C-65.6082 373.885 -71.6544 364.096 -75.392 353.665L-28.6786 400.378C-39.1094 396.641 -48.8986 390.594 -57.2534 382.24ZM6.2997 404.417C9.40453 404.064 12.4921 403.523 15.5439 402.794L-77.8078 309.442C-78.5363 312.494 -79.0773 315.582 -79.4307 318.687L6.2997 404.417ZM30.9737 397.326C28.4636 398.53 25.9021 399.59 23.3013 400.507L-75.5212 301.685C-74.604 299.084 -73.5436 296.523 -72.3401 294.012L30.9737 397.326ZM37.4947 393.803C39.7074 392.466 41.8676 391.008 43.9659 389.43L-64.4437 281.02C-66.0222 283.119 -67.48 285.279 -68.8172 287.492L37.4947 393.803ZM52.2397 382.24C51.331 383.148 50.4054 384.03 49.4638 384.884L-59.8975 275.522C-59.0435 274.581 -58.1621 273.655 -57.2534 272.747C-56.3428 271.836 -55.4152 270.953 -54.4715 270.097L54.8892 379.458C54.0335 380.401 53.1503 381.329 52.2397 382.24ZM59.4348 373.959C61.0165 371.856 62.4769 369.691 63.8162 367.474L-42.4873 261.17C-44.7051 262.509 -46.8702 263.97 -48.9731 265.551L59.4348 373.959ZM70.5038 353.312C69.5902 355.901 68.5347 358.451 67.3374 360.951L-35.9645 257.649C-33.4651 256.451 -30.9146 255.396 -28.3253 254.482L70.5038 353.312ZM72.7914 345.555C73.522 342.496 74.0642 339.402 74.418 336.29L-11.304 250.568C-14.4158 250.922 -17.5103 251.464 -20.5689 252.195L72.7914 345.555ZM73.891 314.898C74.5339 318.818 74.8745 322.778 74.9128 326.741L-1.75476 250.073C2.20781 250.112 6.16801 250.452 10.0883 251.095L73.891 314.898ZM70.3892 301.352C66.6525 290.91 60.6027 281.11 52.2397 272.747C43.8767 264.384 34.0764 258.334 23.6341 254.597L70.3892 301.352Z" fill="url(#paint2_linear_243_3)"/>
<path fill-rule="evenodd" clip-rule="evenodd" d="M334.752 227.913C330.778 227.875 326.806 227.533 322.874 226.887L259.099 163.112C258.453 159.18 258.111 155.209 258.073 151.235L334.752 227.913ZM280.747 205.24C272.392 196.885 266.346 187.096 262.608 176.665L309.321 223.378C298.891 219.641 289.101 213.594 280.747 205.24ZM344.3 227.417C347.405 227.064 350.492 226.523 353.544 225.794L260.192 132.442C259.464 135.494 258.923 138.582 258.569 141.687L344.3 227.417ZM368.974 220.326C366.464 221.53 363.902 222.59 361.301 223.507L262.479 124.685C263.396 122.084 264.456 119.523 265.66 117.012L368.974 220.326ZM375.495 216.803C377.707 215.466 379.868 214.008 381.966 212.43L273.556 104.02C271.978 106.119 270.52 108.279 269.183 110.492L375.495 216.803ZM390.24 205.24C389.331 206.148 388.405 207.03 387.464 207.884L278.102 98.5225C278.957 97.5809 279.838 96.6552 280.747 95.7466C281.657 94.8359 282.585 93.9527 283.529 93.097L392.889 202.458C392.033 203.401 391.15 204.329 390.24 205.24ZM397.435 196.959C399.016 194.856 400.477 192.691 401.816 190.474L295.513 84.17C293.295 85.5093 291.13 86.9698 289.027 88.5514L397.435 196.959ZM408.504 176.312C407.59 178.901 406.535 181.451 405.337 183.951L302.035 80.6488C304.535 79.4515 307.085 78.396 309.675 77.4824L408.504 176.312ZM410.791 168.555C411.522 165.496 412.064 162.402 412.418 159.29L326.696 73.5682C323.584 73.922 320.49 74.4642 317.431 75.1948L410.791 168.555ZM411.891 137.898C412.534 141.818 412.875 145.778 412.913 149.741L336.245 73.0734C340.208 73.1117 344.168 73.4523 348.088 74.0952L411.891 137.898ZM408.389 124.352C404.653 113.91 398.603 104.11 390.24 95.7466C381.877 87.3836 372.076 81.3337 361.634 77.597L408.389 124.352Z" fill="url(#paint3_linear_243_3)"/>
</g>
<defs>
<linearGradient id="paint0_linear_243_3" x1="216.151" y1="37.7249" x2="-95.6577" y2="222.443" gradientUnits="userSpaceOnUse">
<stop stop-color="#0E0E10"/>
<stop offset="1" stop-color="#17171A" stop-opacity="0.23"/>
</linearGradient>
<linearGradient id="paint1_linear_243_3" x1="-101.445" y1="418.296" x2="55.0519" y2="266.767" gradientUnits="userSpaceOnUse">
<stop stop-color="#353535"/>
<stop offset="1" stop-color="#353535" stop-opacity="0"/>
</linearGradient>
<linearGradient id="paint2_linear_243_3" x1="-101.445" y1="418.296" x2="55.0519" y2="266.767" gradientUnits="userSpaceOnUse">
<stop stop-color="#353535"/>
<stop offset="1" stop-color="#353535" stop-opacity="0"/>
</linearGradient>
<linearGradient id="paint3_linear_243_3" x1="236.555" y1="241.296" x2="393.052" y2="89.7674" gradientUnits="userSpaceOnUse">
<stop stop-color="#353535"/>
<stop offset="1" stop-color="#353535" stop-opacity="0"/>
</linearGradient>
<clipPath id="clip0_243_3">
<rect width="369" height="470" fill="white"/>
</clipPath>
</defs>
</svg>
