<svg width="1158" height="460" viewBox="0 0 1158 460" fill="none" xmlns="http://www.w3.org/2000/svg">
<g filter="url(#filter0_di_223_2)">
<rect x="133.219" y="28.2925" width="144.146" height="144.146" rx="12" transform="rotate(45 133.219 28.2925)" fill="#0E0E10"/>
<rect x="133.219" y="28.9996" width="143.146" height="143.146" rx="11.5" transform="rotate(45 133.219 28.9996)" stroke="url(#paint0_radial_223_2)"/>
</g>
<g filter="url(#filter1_di_223_2)">
<rect x="488.219" y="28.2925" width="144.146" height="144.146" rx="12" transform="rotate(45 488.219 28.2925)" fill="#0E0E10"/>
<rect x="488.219" y="28.9996" width="143.146" height="143.146" rx="11.5" transform="rotate(45 488.219 28.9996)" stroke="url(#paint1_radial_223_2)"/>
</g>
<g filter="url(#filter2_di_223_2)">
<rect x="843.219" y="28.2925" width="144.146" height="144.146" rx="12" transform="rotate(45 843.219 28.2925)" fill="#0E0E10"/>
<rect x="843.219" y="28.9996" width="143.146" height="143.146" rx="11.5" transform="rotate(45 843.219 28.9996)" stroke="url(#paint2_radial_223_2)"/>
</g>
<g filter="url(#filter3_di_223_2)">
<rect x="314.773" y="199.84" width="144.146" height="144.146" rx="12" transform="rotate(45 314.773 199.84)" fill="#0E0E10"/>
<rect x="314.773" y="200.547" width="143.146" height="143.146" rx="11.5" transform="rotate(45 314.773 200.547)" stroke="url(#paint3_radial_223_2)"/>
</g>
<g filter="url(#filter4_di_223_2)">
<rect x="669.773" y="199.84" width="144.146" height="144.146" rx="12" transform="rotate(45 669.773 199.84)" fill="#0E0E10"/>
<rect x="669.773" y="200.547" width="143.146" height="143.146" rx="11.5" transform="rotate(45 669.773 200.547)" stroke="url(#paint4_radial_223_2)"/>
</g>
<g filter="url(#filter5_di_223_2)">
<rect x="1024.77" y="199.84" width="144.146" height="144.146" rx="12" transform="rotate(45 1024.77 199.84)" fill="#0E0E10"/>
<rect x="1024.77" y="200.547" width="143.146" height="143.146" rx="11.5" transform="rotate(45 1024.77 200.547)" stroke="url(#paint5_radial_223_2)"/>
</g>
<rect x="133.219" y="0.707107" width="183.157" height="183.157" rx="17.5" transform="rotate(45 133.219 0.707107)" stroke="url(#paint6_radial_223_2)" stroke-dasharray="6 6"/>
<rect x="488.219" y="0.707107" width="183.157" height="183.157" rx="17.5" transform="rotate(45 488.219 0.707107)" stroke="url(#paint7_radial_223_2)" stroke-dasharray="6 6"/>
<rect x="843.219" y="0.707107" width="183.157" height="183.157" rx="17.5" transform="rotate(45 843.219 0.707107)" stroke="url(#paint8_radial_223_2)" stroke-dasharray="6 6"/>
<rect x="314.773" y="172.255" width="183.157" height="183.157" rx="17.5" transform="rotate(45 314.773 172.255)" stroke="url(#paint9_radial_223_2)" stroke-dasharray="6 6"/>
<rect x="669.773" y="172.255" width="183.157" height="183.157" rx="17.5" transform="rotate(45 669.773 172.255)" stroke="url(#paint10_radial_223_2)" stroke-dasharray="6 6"/>
<rect x="1024.77" y="172.255" width="183.157" height="183.157" rx="17.5" transform="rotate(45 1024.77 172.255)" stroke="url(#paint11_radial_223_2)" stroke-dasharray="6 6"/>
<path d="M236.386 228.089C236.939 228.089 237.386 227.641 237.386 227.089V218.089C237.386 217.536 236.939 217.089 236.386 217.089C235.834 217.089 235.386 217.536 235.386 218.089V226.089H227.386C226.834 226.089 226.386 226.536 226.386 227.089C226.386 227.641 226.834 228.089 227.386 228.089H236.386ZM212.137 204.253L235.679 227.796L237.094 226.382L213.551 202.839L212.137 204.253Z" fill="url(#paint12_linear_223_2)"/>
<path d="M587.121 228.089C587.673 228.089 588.121 227.641 588.121 227.089V218.089C588.121 217.536 587.673 217.089 587.121 217.089C586.569 217.089 586.121 217.536 586.121 218.089V226.089H578.121C577.569 226.089 577.121 226.536 577.121 227.089C577.121 227.641 577.569 228.089 578.121 228.089H587.121ZM562.871 204.253L586.414 227.796L587.828 226.382L564.285 202.839L562.871 204.253Z" fill="url(#paint13_linear_223_2)"/>
<path d="M945.152 228.089C945.704 228.089 946.152 227.641 946.152 227.089V218.089C946.152 217.536 945.704 217.089 945.152 217.089C944.6 217.089 944.152 217.536 944.152 218.089V226.089H936.152C935.6 226.089 935.152 226.536 935.152 227.089C935.152 227.641 935.6 228.089 936.152 228.089H945.152ZM920.902 204.253L944.445 227.796L945.859 226.382L922.316 202.839L920.902 204.253Z" fill="url(#paint14_linear_223_2)"/>
<path d="M413.261 202.546C413.814 202.546 414.261 202.994 414.261 203.546L414.261 212.546C414.261 213.098 413.814 213.546 413.261 213.546C412.709 213.546 412.261 213.098 412.261 212.546V204.546H404.261C403.709 204.546 403.261 204.098 403.261 203.546C403.261 202.994 403.709 202.546 404.261 202.546H413.261ZM389.012 226.382L412.554 202.839L413.969 204.253L390.426 227.796L389.012 226.382Z" fill="url(#paint15_linear_223_2)"/>
<path d="M763.996 202.546C764.548 202.546 764.996 202.994 764.996 203.546V212.546C764.996 213.098 764.548 213.546 763.996 213.546C763.444 213.546 762.996 213.098 762.996 212.546V204.546H754.996C754.444 204.546 753.996 204.098 753.996 203.546C753.996 202.994 754.444 202.546 754.996 202.546H763.996ZM739.746 226.382L763.289 202.839L764.703 204.253L741.16 227.796L739.746 226.382Z" fill="url(#paint16_linear_223_2)"/>
<path d="M88.0437 135.971C87.0477 135.971 86.1897 135.791 85.4697 135.431C84.7617 135.071 84.2097 134.555 83.8137 133.883C83.4297 133.199 83.2377 132.371 83.2377 131.399V123.119H85.1997V131.453C85.1997 132.341 85.4457 133.025 85.9377 133.505C86.4297 133.985 87.1317 134.225 88.0437 134.225C88.9557 134.225 89.6577 133.985 90.1497 133.505C90.6417 133.025 90.8877 132.341 90.8877 131.453V123.119H92.8317V131.399C92.8317 132.371 92.6397 133.199 92.2557 133.883C91.8717 134.555 91.3197 135.071 90.5997 135.431C89.8797 135.791 89.0277 135.971 88.0437 135.971ZM95.4227 135.719V126.845H97.2407V128.177H97.5287C97.6967 127.817 97.9967 127.481 98.4287 127.169C98.8607 126.857 99.5027 126.701 100.355 126.701C101.027 126.701 101.621 126.851 102.137 127.151C102.665 127.451 103.079 127.877 103.379 128.429C103.679 128.969 103.829 129.623 103.829 130.391V135.719H101.975V130.535C101.975 129.767 101.783 129.203 101.399 128.843C101.015 128.471 100.487 128.285 99.8147 128.285C99.0467 128.285 98.4287 128.537 97.9607 129.041C97.5047 129.545 97.2767 130.277 97.2767 131.237V135.719H95.4227ZM110.169 135.971C109.437 135.971 108.759 135.791 108.135 135.431C107.511 135.071 107.007 134.555 106.623 133.883C106.251 133.199 106.065 132.377 106.065 131.417V131.147C106.065 130.199 106.251 129.383 106.623 128.699C106.995 128.015 107.493 127.493 108.117 127.133C108.741 126.773 109.425 126.593 110.169 126.593C110.745 126.593 111.225 126.665 111.609 126.809C112.005 126.953 112.329 127.139 112.581 127.367C112.833 127.583 113.025 127.811 113.157 128.051H113.445V123.119H115.299V135.719H113.481V134.459H113.193C112.965 134.843 112.617 135.191 112.149 135.503C111.693 135.815 111.033 135.971 110.169 135.971ZM110.691 134.351C111.495 134.351 112.155 134.093 112.671 133.577C113.199 133.061 113.463 132.323 113.463 131.363V131.201C113.463 130.253 113.205 129.521 112.689 129.005C112.173 128.489 111.507 128.231 110.691 128.231C109.899 128.231 109.239 128.489 108.711 129.005C108.195 129.521 107.937 130.253 107.937 131.201V131.363C107.937 132.323 108.195 133.061 108.711 133.577C109.239 134.093 109.899 134.351 110.691 134.351ZM122.096 135.971C121.196 135.971 120.41 135.785 119.738 135.413C119.066 135.029 118.538 134.495 118.154 133.811C117.782 133.115 117.596 132.311 117.596 131.399V131.183C117.596 130.259 117.782 129.455 118.154 128.771C118.526 128.075 119.042 127.541 119.702 127.169C120.374 126.785 121.148 126.593 122.024 126.593C122.876 126.593 123.62 126.785 124.256 127.169C124.904 127.541 125.408 128.063 125.768 128.735C126.128 129.407 126.308 130.193 126.308 131.093V131.795H119.486C119.51 132.575 119.768 133.199 120.26 133.667C120.764 134.123 121.388 134.351 122.132 134.351C122.828 134.351 123.35 134.195 123.698 133.883C124.058 133.571 124.334 133.211 124.526 132.803L126.056 133.595C125.888 133.931 125.642 134.285 125.318 134.657C125.006 135.029 124.592 135.341 124.076 135.593C123.56 135.845 122.9 135.971 122.096 135.971ZM119.504 130.373H124.418C124.37 129.701 124.13 129.179 123.698 128.807C123.266 128.423 122.702 128.231 122.006 128.231C121.31 128.231 120.74 128.423 120.296 128.807C119.864 129.179 119.6 129.701 119.504 130.373ZM128.54 135.719V126.845H130.358V127.889H130.646C130.79 127.517 131.018 127.247 131.33 127.079C131.654 126.899 132.05 126.809 132.518 126.809H133.58V128.483H132.446C131.846 128.483 131.354 128.651 130.97 128.987C130.586 129.311 130.394 129.815 130.394 130.499V135.719H128.54ZM138.943 135.971C137.815 135.971 136.879 135.719 136.135 135.215C135.391 134.711 134.935 133.949 134.767 132.929L136.495 132.515C136.591 133.007 136.753 133.397 136.981 133.685C137.209 133.973 137.491 134.177 137.827 134.297C138.175 134.417 138.547 134.477 138.943 134.477C139.531 134.477 139.981 134.363 140.293 134.135C140.617 133.907 140.779 133.613 140.779 133.253C140.779 132.893 140.629 132.629 140.329 132.461C140.029 132.293 139.585 132.155 138.997 132.047L138.385 131.939C137.785 131.831 137.239 131.675 136.747 131.471C136.255 131.267 135.865 130.985 135.577 130.625C135.289 130.265 135.145 129.803 135.145 129.239C135.145 128.399 135.457 127.751 136.081 127.295C136.705 126.827 137.533 126.593 138.565 126.593C139.561 126.593 140.377 126.821 141.013 127.277C141.661 127.721 142.081 128.327 142.273 129.095L140.545 129.581C140.437 129.041 140.209 128.663 139.861 128.447C139.513 128.219 139.081 128.105 138.565 128.105C138.061 128.105 137.665 128.201 137.377 128.393C137.089 128.573 136.945 128.831 136.945 129.167C136.945 129.527 137.083 129.791 137.359 129.959C137.647 130.127 138.031 130.253 138.511 130.337L139.141 130.445C139.777 130.553 140.359 130.703 140.887 130.895C141.415 131.087 141.829 131.363 142.129 131.723C142.441 132.083 142.597 132.563 142.597 133.163C142.597 134.051 142.267 134.741 141.607 135.233C140.947 135.725 140.059 135.971 138.943 135.971ZM147.901 135.719C147.361 135.719 146.929 135.557 146.605 135.233C146.293 134.909 146.137 134.477 146.137 133.937V128.411H143.689V126.845H146.137V123.911H147.991V126.845H150.637V128.411H147.991V133.613C147.991 133.973 148.159 134.153 148.495 134.153H150.349V135.719H147.901ZM155.552 135.971C154.916 135.971 154.346 135.863 153.842 135.647C153.35 135.431 152.954 135.113 152.654 134.693C152.366 134.273 152.222 133.763 152.222 133.163C152.222 132.551 152.366 132.047 152.654 131.651C152.954 131.243 153.356 130.937 153.86 130.733C154.376 130.529 154.958 130.427 155.606 130.427H158.306V129.851C158.306 129.335 158.15 128.921 157.838 128.609C157.526 128.297 157.046 128.141 156.398 128.141C155.762 128.141 155.276 128.291 154.94 128.591C154.604 128.891 154.382 129.281 154.274 129.761L152.546 129.203C152.69 128.723 152.918 128.291 153.23 127.907C153.554 127.511 153.98 127.193 154.508 126.953C155.036 126.713 155.672 126.593 156.416 126.593C157.568 126.593 158.474 126.887 159.134 127.475C159.794 128.063 160.124 128.897 160.124 129.977V133.631C160.124 133.991 160.292 134.171 160.628 134.171H161.384V135.719H159.998C159.578 135.719 159.236 135.611 158.972 135.395C158.708 135.179 158.576 134.885 158.576 134.513V134.459H158.306C158.21 134.639 158.066 134.849 157.874 135.089C157.682 135.329 157.4 135.539 157.028 135.719C156.656 135.887 156.164 135.971 155.552 135.971ZM155.822 134.441C156.566 134.441 157.166 134.231 157.622 133.811C158.078 133.379 158.306 132.791 158.306 132.047V131.867H155.714C155.222 131.867 154.826 131.975 154.526 132.191C154.226 132.395 154.076 132.701 154.076 133.109C154.076 133.517 154.232 133.841 154.544 134.081C154.856 134.321 155.282 134.441 155.822 134.441ZM163.186 135.719V126.845H165.004V128.177H165.292C165.46 127.817 165.76 127.481 166.192 127.169C166.624 126.857 167.266 126.701 168.118 126.701C168.79 126.701 169.384 126.851 169.9 127.151C170.428 127.451 170.842 127.877 171.142 128.429C171.442 128.969 171.592 129.623 171.592 130.391V135.719H169.738V130.535C169.738 129.767 169.546 129.203 169.162 128.843C168.778 128.471 168.25 128.285 167.578 128.285C166.81 128.285 166.192 128.537 165.724 129.041C165.268 129.545 165.04 130.277 165.04 131.237V135.719H163.186ZM177.933 135.971C177.201 135.971 176.523 135.791 175.899 135.431C175.275 135.071 174.771 134.555 174.387 133.883C174.015 133.199 173.829 132.377 173.829 131.417V131.147C173.829 130.199 174.015 129.383 174.387 128.699C174.759 128.015 175.257 127.493 175.881 127.133C176.505 126.773 177.189 126.593 177.933 126.593C178.509 126.593 178.989 126.665 179.373 126.809C179.769 126.953 180.093 127.139 180.345 127.367C180.597 127.583 180.789 127.811 180.921 128.051H181.209V123.119H183.063V135.719H181.245V134.459H180.957C180.729 134.843 180.381 135.191 179.913 135.503C179.457 135.815 178.797 135.971 177.933 135.971ZM178.455 134.351C179.259 134.351 179.919 134.093 180.435 133.577C180.963 133.061 181.227 132.323 181.227 131.363V131.201C181.227 130.253 180.969 129.521 180.453 129.005C179.937 128.489 179.271 128.231 178.455 128.231C177.663 128.231 177.003 128.489 176.475 129.005C175.959 129.521 175.701 130.253 175.701 131.201V131.363C175.701 132.323 175.959 133.061 176.475 133.577C177.003 134.093 177.663 134.351 178.455 134.351Z" fill="#E6E6E6"/>
<path d="M468.414 135.719V124.883H464.544V123.119H474.228V124.883H470.358V135.719H468.414ZM476.044 135.719V123.119H477.898V128.105H478.186C478.306 127.877 478.474 127.655 478.69 127.439C478.918 127.223 479.212 127.049 479.572 126.917C479.944 126.773 480.412 126.701 480.976 126.701C481.648 126.701 482.242 126.851 482.758 127.151C483.286 127.451 483.7 127.877 484 128.429C484.3 128.969 484.45 129.623 484.45 130.391V135.719H482.596V130.535C482.596 129.767 482.404 129.203 482.02 128.843C481.636 128.471 481.108 128.285 480.436 128.285C479.668 128.285 479.05 128.537 478.582 129.041C478.126 129.545 477.898 130.277 477.898 131.237V135.719H476.044ZM487.118 135.719V126.845H488.972V135.719H487.118ZM488.054 125.639C487.694 125.639 487.388 125.525 487.136 125.297C486.896 125.057 486.776 124.751 486.776 124.379C486.776 124.007 486.896 123.707 487.136 123.479C487.388 123.239 487.694 123.119 488.054 123.119C488.426 123.119 488.732 123.239 488.972 123.479C489.212 123.707 489.332 124.007 489.332 124.379C489.332 124.751 489.212 125.057 488.972 125.297C488.732 125.525 488.426 125.639 488.054 125.639ZM491.723 135.719V126.845H493.541V128.177H493.829C493.997 127.817 494.297 127.481 494.729 127.169C495.161 126.857 495.803 126.701 496.655 126.701C497.327 126.701 497.921 126.851 498.437 127.151C498.965 127.451 499.379 127.877 499.679 128.429C499.979 128.969 500.129 129.623 500.129 130.391V135.719H498.275V130.535C498.275 129.767 498.083 129.203 497.699 128.843C497.315 128.471 496.787 128.285 496.115 128.285C495.347 128.285 494.729 128.537 494.261 129.041C493.805 129.545 493.577 130.277 493.577 131.237V135.719H491.723ZM502.798 135.719V123.119H504.652V130.301H504.94L508.432 126.845H510.898L506.416 131.147L511.042 135.719H508.594L504.94 132.029H504.652V135.719H502.798Z" fill="#E6E6E6"/>
<path d="M287.241 308.267V306.539H288.933V297.395H287.241V295.667H292.281C293.961 295.667 295.245 296.093 296.133 296.945C297.033 297.797 297.483 299.081 297.483 300.797V303.155C297.483 304.871 297.033 306.155 296.133 307.007C295.245 307.847 293.961 308.267 292.281 308.267H287.241ZM290.895 306.503H292.299C293.391 306.503 294.201 306.227 294.729 305.675C295.257 305.123 295.521 304.301 295.521 303.209V300.725C295.521 299.621 295.257 298.799 294.729 298.259C294.201 297.719 293.391 297.449 292.299 297.449H290.895V306.503ZM303.801 308.519C302.901 308.519 302.115 308.333 301.443 307.961C300.771 307.577 300.243 307.043 299.859 306.359C299.487 305.663 299.301 304.859 299.301 303.947V303.731C299.301 302.807 299.487 302.003 299.859 301.319C300.231 300.623 300.747 300.089 301.407 299.717C302.079 299.333 302.853 299.141 303.729 299.141C304.581 299.141 305.325 299.333 305.961 299.717C306.609 300.089 307.113 300.611 307.473 301.283C307.833 301.955 308.013 302.741 308.013 303.641V304.343H301.191C301.215 305.123 301.473 305.747 301.965 306.215C302.469 306.671 303.093 306.899 303.837 306.899C304.533 306.899 305.055 306.743 305.403 306.431C305.763 306.119 306.039 305.759 306.231 305.351L307.761 306.143C307.593 306.479 307.347 306.833 307.023 307.205C306.711 307.577 306.297 307.889 305.781 308.141C305.265 308.393 304.605 308.519 303.801 308.519ZM301.209 302.921H306.123C306.075 302.249 305.835 301.727 305.403 301.355C304.971 300.971 304.407 300.779 303.711 300.779C303.015 300.779 302.445 300.971 302.001 301.355C301.569 301.727 301.305 302.249 301.209 302.921ZM311.513 308.267V300.959H309.029V299.393H311.513V297.449C311.513 296.909 311.675 296.477 311.999 296.153C312.323 295.829 312.755 295.667 313.295 295.667H315.455V297.233H313.889C313.541 297.233 313.367 297.413 313.367 297.773V299.393H317.345V300.959H313.367V308.267H311.513ZM317.345 308.267V299.393H319.199V308.267H317.345ZM318.281 298.241C317.921 298.241 317.615 298.127 317.363 297.899C317.123 297.659 317.003 297.353 317.003 296.981C317.003 296.597 317.123 296.291 317.363 296.063C317.615 295.835 317.921 295.721 318.281 295.721C318.641 295.721 318.941 295.835 319.181 296.063C319.433 296.291 319.559 296.597 319.559 296.981C319.559 297.353 319.433 297.659 319.181 297.899C318.941 298.127 318.641 298.241 318.281 298.241ZM321.934 308.267V299.393H323.752V300.725H324.04C324.208 300.365 324.508 300.029 324.94 299.717C325.372 299.405 326.014 299.249 326.866 299.249C327.538 299.249 328.132 299.399 328.648 299.699C329.176 299.999 329.59 300.425 329.89 300.977C330.19 301.517 330.34 302.171 330.34 302.939V308.267H328.486V303.083C328.486 302.315 328.294 301.751 327.91 301.391C327.526 301.019 326.998 300.833 326.326 300.833C325.558 300.833 324.94 301.085 324.472 301.589C324.016 302.093 323.788 302.825 323.788 303.785V308.267H321.934ZM337.077 308.519C336.177 308.519 335.391 308.333 334.719 307.961C334.047 307.577 333.519 307.043 333.135 306.359C332.763 305.663 332.577 304.859 332.577 303.947V303.731C332.577 302.807 332.763 302.003 333.135 301.319C333.507 300.623 334.023 300.089 334.683 299.717C335.355 299.333 336.129 299.141 337.005 299.141C337.857 299.141 338.601 299.333 339.237 299.717C339.885 300.089 340.389 300.611 340.749 301.283C341.109 301.955 341.289 302.741 341.289 303.641V304.343H334.467C334.491 305.123 334.749 305.747 335.241 306.215C335.745 306.671 336.369 306.899 337.113 306.899C337.809 306.899 338.331 306.743 338.679 306.431C339.039 306.119 339.315 305.759 339.507 305.351L341.037 306.143C340.869 306.479 340.623 306.833 340.299 307.205C339.987 307.577 339.573 307.889 339.057 308.141C338.541 308.393 337.881 308.519 337.077 308.519ZM334.485 302.921H339.399C339.351 302.249 339.111 301.727 338.679 301.355C338.247 300.971 337.683 300.779 336.987 300.779C336.291 300.779 335.721 300.971 335.277 301.355C334.845 301.727 334.581 302.249 334.485 302.921Z" fill="#E6E6E6"/>
<path d="M828.889 126V115.164H825.019V113.4H834.703V115.164H830.833V126H828.889ZM838.847 126.252C837.947 126.252 837.161 126.066 836.489 125.694C835.817 125.31 835.289 124.776 834.905 124.092C834.533 123.396 834.347 122.592 834.347 121.68V121.464C834.347 120.54 834.533 119.736 834.905 119.052C835.277 118.356 835.793 117.822 836.453 117.45C837.125 117.066 837.899 116.874 838.775 116.874C839.627 116.874 840.371 117.066 841.007 117.45C841.655 117.822 842.159 118.344 842.519 119.016C842.879 119.688 843.059 120.474 843.059 121.374V122.076H836.237C836.261 122.856 836.519 123.48 837.011 123.948C837.515 124.404 838.139 124.632 838.883 124.632C839.579 124.632 840.101 124.476 840.449 124.164C840.809 123.852 841.085 123.492 841.277 123.084L842.807 123.876C842.639 124.212 842.393 124.566 842.069 124.938C841.757 125.31 841.343 125.622 840.827 125.874C840.311 126.126 839.651 126.252 838.847 126.252ZM836.255 120.654H841.169C841.121 119.982 840.881 119.46 840.449 119.088C840.017 118.704 839.453 118.512 838.757 118.512C838.061 118.512 837.491 118.704 837.047 119.088C836.615 119.46 836.351 119.982 836.255 120.654ZM848.927 126.252C847.799 126.252 846.863 126 846.119 125.496C845.375 124.992 844.919 124.23 844.751 123.21L846.479 122.796C846.575 123.288 846.737 123.678 846.965 123.966C847.193 124.254 847.475 124.458 847.811 124.578C848.159 124.698 848.531 124.758 848.927 124.758C849.515 124.758 849.965 124.644 850.277 124.416C850.601 124.188 850.763 123.894 850.763 123.534C850.763 123.174 850.613 122.91 850.313 122.742C850.013 122.574 849.569 122.436 848.981 122.328L848.369 122.22C847.769 122.112 847.223 121.956 846.731 121.752C846.239 121.548 845.849 121.266 845.561 120.906C845.273 120.546 845.129 120.084 845.129 119.52C845.129 118.68 845.441 118.032 846.065 117.576C846.689 117.108 847.517 116.874 848.549 116.874C849.545 116.874 850.361 117.102 850.997 117.558C851.645 118.002 852.065 118.608 852.257 119.376L850.529 119.862C850.421 119.322 850.193 118.944 849.845 118.728C849.497 118.5 849.065 118.386 848.549 118.386C848.045 118.386 847.649 118.482 847.361 118.674C847.073 118.854 846.929 119.112 846.929 119.448C846.929 119.808 847.067 120.072 847.343 120.24C847.631 120.408 848.015 120.534 848.495 120.618L849.125 120.726C849.761 120.834 850.343 120.984 850.871 121.176C851.399 121.368 851.813 121.644 852.113 122.004C852.425 122.364 852.581 122.844 852.581 123.444C852.581 124.332 852.251 125.022 851.591 125.514C850.931 126.006 850.043 126.252 848.927 126.252ZM857.885 126C857.345 126 856.913 125.838 856.589 125.514C856.277 125.19 856.121 124.758 856.121 124.218V118.692H853.673V117.126H856.121V114.192H857.975V117.126H860.621V118.692H857.975V123.894C857.975 124.254 858.143 124.434 858.479 124.434H860.333V126H857.885ZM778.912 151.32C777.664 151.32 776.602 151.104 775.726 150.672C774.85 150.24 774.184 149.562 773.728 148.638C773.284 147.726 773.062 146.55 773.062 145.11V139.71C773.062 138.27 773.284 137.094 773.728 136.182C774.184 135.258 774.85 134.58 775.726 134.148C776.602 133.716 777.664 133.5 778.912 133.5V135.084C777.544 135.096 776.524 135.486 775.852 136.254C775.192 137.01 774.862 138.186 774.862 139.782V145.038C774.862 146.634 775.192 147.81 775.852 148.566C776.524 149.334 777.544 149.724 778.912 149.736V151.32ZM785.098 147.252C784.102 147.252 783.244 147.072 782.524 146.712C781.816 146.352 781.264 145.836 780.868 145.164C780.484 144.48 780.292 143.652 780.292 142.68V134.4H782.254V142.734C782.254 143.622 782.5 144.306 782.992 144.786C783.484 145.266 784.186 145.506 785.098 145.506C786.01 145.506 786.712 145.266 787.204 144.786C787.696 144.306 787.942 143.622 787.942 142.734V134.4H789.886V142.68C789.886 143.652 789.694 144.48 789.31 145.164C788.926 145.836 788.374 146.352 787.654 146.712C786.934 147.072 786.082 147.252 785.098 147.252ZM796.113 147.252C794.985 147.252 794.049 147 793.305 146.496C792.561 145.992 792.105 145.23 791.937 144.21L793.665 143.796C793.761 144.288 793.923 144.678 794.151 144.966C794.379 145.254 794.661 145.458 794.997 145.578C795.345 145.698 795.717 145.758 796.113 145.758C796.701 145.758 797.151 145.644 797.463 145.416C797.787 145.188 797.949 144.894 797.949 144.534C797.949 144.174 797.799 143.91 797.499 143.742C797.199 143.574 796.755 143.436 796.167 143.328L795.555 143.22C794.955 143.112 794.409 142.956 793.917 142.752C793.425 142.548 793.035 142.266 792.747 141.906C792.459 141.546 792.315 141.084 792.315 140.52C792.315 139.68 792.627 139.032 793.251 138.576C793.875 138.108 794.703 137.874 795.735 137.874C796.731 137.874 797.547 138.102 798.183 138.558C798.831 139.002 799.251 139.608 799.443 140.376L797.715 140.862C797.607 140.322 797.379 139.944 797.031 139.728C796.683 139.5 796.251 139.386 795.735 139.386C795.231 139.386 794.835 139.482 794.547 139.674C794.259 139.854 794.115 140.112 794.115 140.448C794.115 140.808 794.253 141.072 794.529 141.24C794.817 141.408 795.201 141.534 795.681 141.618L796.311 141.726C796.947 141.834 797.529 141.984 798.057 142.176C798.585 142.368 798.999 142.644 799.299 143.004C799.611 143.364 799.767 143.844 799.767 144.444C799.767 145.332 799.437 146.022 798.777 146.514C798.117 147.006 797.229 147.252 796.113 147.252ZM806.002 147.252C805.102 147.252 804.316 147.066 803.644 146.694C802.972 146.31 802.444 145.776 802.06 145.092C801.688 144.396 801.502 143.592 801.502 142.68V142.464C801.502 141.54 801.688 140.736 802.06 140.052C802.432 139.356 802.948 138.822 803.608 138.45C804.28 138.066 805.054 137.874 805.93 137.874C806.782 137.874 807.526 138.066 808.162 138.45C808.81 138.822 809.314 139.344 809.674 140.016C810.034 140.688 810.214 141.474 810.214 142.374V143.076H803.392C803.416 143.856 803.674 144.48 804.166 144.948C804.67 145.404 805.294 145.632 806.038 145.632C806.734 145.632 807.256 145.476 807.604 145.164C807.964 144.852 808.24 144.492 808.432 144.084L809.962 144.876C809.794 145.212 809.548 145.566 809.224 145.938C808.912 146.31 808.498 146.622 807.982 146.874C807.466 147.126 806.806 147.252 806.002 147.252ZM803.41 141.654H808.324C808.276 140.982 808.036 140.46 807.604 140.088C807.172 139.704 806.608 139.512 805.912 139.512C805.216 139.512 804.646 139.704 804.202 140.088C803.77 140.46 803.506 140.982 803.41 141.654ZM812.446 147V138.126H814.264V139.17H814.552C814.696 138.798 814.924 138.528 815.236 138.36C815.56 138.18 815.956 138.09 816.424 138.09H817.486V139.764H816.352C815.752 139.764 815.26 139.932 814.876 140.268C814.492 140.592 814.3 141.096 814.3 141.78V147H812.446ZM823.941 147V134.4H831.717V136.164H825.885V139.8H831.249V141.564H825.885V147H823.941ZM837.643 147.252C836.743 147.252 835.957 147.066 835.285 146.694C834.613 146.31 834.085 145.776 833.701 145.092C833.329 144.396 833.143 143.592 833.143 142.68V142.464C833.143 141.54 833.329 140.736 833.701 140.052C834.073 139.356 834.589 138.822 835.249 138.45C835.921 138.066 836.695 137.874 837.571 137.874C838.423 137.874 839.167 138.066 839.803 138.45C840.451 138.822 840.955 139.344 841.315 140.016C841.675 140.688 841.855 141.474 841.855 142.374V143.076H835.033C835.057 143.856 835.315 144.48 835.807 144.948C836.311 145.404 836.935 145.632 837.679 145.632C838.375 145.632 838.897 145.476 839.245 145.164C839.605 144.852 839.881 144.492 840.073 144.084L841.603 144.876C841.435 145.212 841.189 145.566 840.865 145.938C840.553 146.31 840.139 146.622 839.623 146.874C839.107 147.126 838.447 147.252 837.643 147.252ZM835.051 141.654H839.965C839.917 140.982 839.677 140.46 839.245 140.088C838.813 139.704 838.249 139.512 837.553 139.512C836.857 139.512 836.287 139.704 835.843 140.088C835.411 140.46 835.147 140.982 835.051 141.654ZM848.155 147.252C847.255 147.252 846.469 147.066 845.797 146.694C845.125 146.31 844.597 145.776 844.213 145.092C843.841 144.396 843.655 143.592 843.655 142.68V142.464C843.655 141.54 843.841 140.736 844.213 140.052C844.585 139.356 845.101 138.822 845.761 138.45C846.433 138.066 847.207 137.874 848.083 137.874C848.935 137.874 849.679 138.066 850.315 138.45C850.963 138.822 851.467 139.344 851.827 140.016C852.187 140.688 852.367 141.474 852.367 142.374V143.076H845.545C845.569 143.856 845.827 144.48 846.319 144.948C846.823 145.404 847.447 145.632 848.191 145.632C848.887 145.632 849.409 145.476 849.757 145.164C850.117 144.852 850.393 144.492 850.585 144.084L852.115 144.876C851.947 145.212 851.701 145.566 851.377 145.938C851.065 146.31 850.651 146.622 850.135 146.874C849.619 147.126 848.959 147.252 848.155 147.252ZM845.563 141.654H850.477C850.429 140.982 850.189 140.46 849.757 140.088C849.325 139.704 848.761 139.512 848.065 139.512C847.369 139.512 846.799 139.704 846.355 140.088C845.923 140.46 845.659 140.982 845.563 141.654ZM858.27 147.252C857.538 147.252 856.86 147.072 856.236 146.712C855.612 146.352 855.108 145.836 854.724 145.164C854.352 144.48 854.166 143.658 854.166 142.698V142.428C854.166 141.48 854.352 140.664 854.724 139.98C855.096 139.296 855.594 138.774 856.218 138.414C856.842 138.054 857.526 137.874 858.27 137.874C858.846 137.874 859.326 137.946 859.71 138.09C860.106 138.234 860.43 138.42 860.682 138.648C860.934 138.864 861.126 139.092 861.258 139.332H861.546V134.4H863.4V147H861.582V145.74H861.294C861.066 146.124 860.718 146.472 860.25 146.784C859.794 147.096 859.134 147.252 858.27 147.252ZM858.792 145.632C859.596 145.632 860.256 145.374 860.772 144.858C861.3 144.342 861.564 143.604 861.564 142.644V142.482C861.564 141.534 861.306 140.802 860.79 140.286C860.274 139.77 859.608 139.512 858.792 139.512C858 139.512 857.34 139.77 856.812 140.286C856.296 140.802 856.038 141.534 856.038 142.482V142.644C856.038 143.604 856.296 144.342 856.812 144.858C857.34 145.374 858 145.632 858.792 145.632ZM871.26 147.252C870.396 147.252 869.73 147.096 869.262 146.784C868.806 146.472 868.464 146.124 868.236 145.74H867.948V147H866.13V134.4H867.984V139.332H868.272C868.416 139.092 868.608 138.864 868.848 138.648C869.088 138.42 869.406 138.234 869.802 138.09C870.198 137.946 870.684 137.874 871.26 137.874C872.004 137.874 872.688 138.054 873.312 138.414C873.936 138.774 874.434 139.296 874.806 139.98C875.178 140.664 875.364 141.48 875.364 142.428V142.698C875.364 143.658 875.172 144.48 874.788 145.164C874.416 145.836 873.918 146.352 873.294 146.712C872.682 147.072 872.004 147.252 871.26 147.252ZM870.72 145.632C871.524 145.632 872.184 145.374 872.7 144.858C873.228 144.342 873.492 143.604 873.492 142.644V142.482C873.492 141.534 873.234 140.802 872.718 140.286C872.202 139.77 871.536 139.512 870.72 139.512C869.928 139.512 869.268 139.77 868.74 140.286C868.224 140.802 867.966 141.534 867.966 142.482V142.644C867.966 143.604 868.224 144.342 868.74 144.858C869.268 145.374 869.928 145.632 870.72 145.632ZM880.415 147.252C879.779 147.252 879.209 147.144 878.705 146.928C878.213 146.712 877.817 146.394 877.517 145.974C877.229 145.554 877.085 145.044 877.085 144.444C877.085 143.832 877.229 143.328 877.517 142.932C877.817 142.524 878.219 142.218 878.723 142.014C879.239 141.81 879.821 141.708 880.469 141.708H883.169V141.132C883.169 140.616 883.013 140.202 882.701 139.89C882.389 139.578 881.909 139.422 881.261 139.422C880.625 139.422 880.139 139.572 879.803 139.872C879.467 140.172 879.245 140.562 879.137 141.042L877.409 140.484C877.553 140.004 877.781 139.572 878.093 139.188C878.417 138.792 878.843 138.474 879.371 138.234C879.899 137.994 880.535 137.874 881.279 137.874C882.431 137.874 883.337 138.168 883.997 138.756C884.657 139.344 884.987 140.178 884.987 141.258V144.912C884.987 145.272 885.155 145.452 885.491 145.452H886.247V147H884.861C884.441 147 884.099 146.892 883.835 146.676C883.571 146.46 883.439 146.166 883.439 145.794V145.74H883.169C883.073 145.92 882.929 146.13 882.737 146.37C882.545 146.61 882.263 146.82 881.891 147C881.519 147.168 881.027 147.252 880.415 147.252ZM880.685 145.722C881.429 145.722 882.029 145.512 882.485 145.092C882.941 144.66 883.169 144.072 883.169 143.328V143.148H880.577C880.085 143.148 879.689 143.256 879.389 143.472C879.089 143.676 878.939 143.982 878.939 144.39C878.939 144.798 879.095 145.122 879.407 145.362C879.719 145.602 880.145 145.722 880.685 145.722ZM891.961 147.252C891.109 147.252 890.335 147.072 889.639 146.712C888.955 146.352 888.409 145.83 888.001 145.146C887.605 144.462 887.407 143.64 887.407 142.68V142.446C887.407 141.486 887.605 140.67 888.001 139.998C888.409 139.314 888.955 138.792 889.639 138.432C890.335 138.06 891.109 137.874 891.961 137.874C892.813 137.874 893.539 138.03 894.139 138.342C894.739 138.654 895.219 139.068 895.579 139.584C895.951 140.1 896.191 140.67 896.299 141.294L894.499 141.672C894.439 141.276 894.313 140.916 894.121 140.592C893.929 140.268 893.659 140.01 893.311 139.818C892.963 139.626 892.525 139.53 891.997 139.53C891.481 139.53 891.013 139.65 890.593 139.89C890.185 140.118 889.861 140.454 889.621 140.898C889.381 141.33 889.261 141.858 889.261 142.482V142.644C889.261 143.268 889.381 143.802 889.621 144.246C889.861 144.69 890.185 145.026 890.593 145.254C891.013 145.482 891.481 145.596 891.997 145.596C892.777 145.596 893.371 145.398 893.779 145.002C894.187 144.594 894.445 144.078 894.553 143.454L896.353 143.868C896.209 144.48 895.951 145.044 895.579 145.56C895.219 146.076 894.739 146.49 894.139 146.802C893.539 147.102 892.813 147.252 891.961 147.252ZM898.491 147V134.4H900.345V141.582H900.633L904.125 138.126H906.591L902.109 142.428L906.735 147H904.287L900.633 143.31H900.345V147H898.491ZM907.091 151.32V149.736C908.483 149.724 909.509 149.334 910.169 148.566C910.829 147.81 911.159 146.634 911.159 145.038V139.782C911.159 138.186 910.829 137.01 910.169 136.254C909.509 135.486 908.483 135.096 907.091 135.084V133.5C908.351 133.5 909.413 133.716 910.277 134.148C911.153 134.58 911.813 135.258 912.257 136.182C912.713 137.094 912.941 138.27 912.941 139.71V145.11C912.941 146.55 912.713 147.726 912.257 148.638C911.813 149.562 911.153 150.24 910.277 150.672C909.413 151.104 908.351 151.32 907.091 151.32Z" fill="#E6E6E6"/>
<path d="M995.971 314V312.272H997.663V303.128H995.971V301.4H1001.01C1002.69 301.4 1003.98 301.826 1004.86 302.678C1005.76 303.53 1006.21 304.814 1006.21 306.53V308.888C1006.21 310.604 1005.76 311.888 1004.86 312.74C1003.98 313.58 1002.69 314 1001.01 314H995.971ZM999.625 312.236H1001.03C1002.12 312.236 1002.93 311.96 1003.46 311.408C1003.99 310.856 1004.25 310.034 1004.25 308.942V306.458C1004.25 305.354 1003.99 304.532 1003.46 303.992C1002.93 303.452 1002.12 303.182 1001.03 303.182H999.625V312.236ZM1012.53 314.252C1011.63 314.252 1010.85 314.066 1010.17 313.694C1009.5 313.31 1008.97 312.776 1008.59 312.092C1008.22 311.396 1008.03 310.592 1008.03 309.68V309.464C1008.03 308.54 1008.22 307.736 1008.59 307.052C1008.96 306.356 1009.48 305.822 1010.14 305.45C1010.81 305.066 1011.58 304.874 1012.46 304.874C1013.31 304.874 1014.06 305.066 1014.69 305.45C1015.34 305.822 1015.84 306.344 1016.2 307.016C1016.56 307.688 1016.74 308.474 1016.74 309.374V310.076H1009.92C1009.95 310.856 1010.2 311.48 1010.7 311.948C1011.2 312.404 1011.82 312.632 1012.57 312.632C1013.26 312.632 1013.79 312.476 1014.13 312.164C1014.49 311.852 1014.77 311.492 1014.96 311.084L1016.49 311.876C1016.32 312.212 1016.08 312.566 1015.75 312.938C1015.44 313.31 1015.03 313.622 1014.51 313.874C1014 314.126 1013.34 314.252 1012.53 314.252ZM1009.94 308.654H1014.85C1014.81 307.982 1014.57 307.46 1014.13 307.088C1013.7 306.704 1013.14 306.512 1012.44 306.512C1011.75 306.512 1011.18 306.704 1010.73 307.088C1010.3 307.46 1010.04 307.982 1009.94 308.654ZM1018.98 317.6V305.126H1020.79V306.404H1021.08C1021.31 306.008 1021.65 305.654 1022.11 305.342C1022.58 305.03 1023.24 304.874 1024.11 304.874C1024.85 304.874 1025.53 305.054 1026.14 305.414C1026.76 305.774 1027.26 306.296 1027.63 306.98C1028.02 307.652 1028.21 308.468 1028.21 309.428V309.698C1028.21 310.658 1028.02 311.48 1027.65 312.164C1027.28 312.836 1026.78 313.352 1026.16 313.712C1025.53 314.072 1024.85 314.252 1024.11 314.252C1023.53 314.252 1023.04 314.18 1022.65 314.036C1022.25 313.892 1021.93 313.712 1021.69 313.496C1021.45 313.268 1021.26 313.034 1021.12 312.794H1020.83V317.6H1018.98ZM1023.57 312.632C1024.38 312.632 1025.05 312.374 1025.56 311.858C1026.08 311.342 1026.34 310.604 1026.34 309.644V309.482C1026.34 308.534 1026.07 307.802 1025.55 307.286C1025.03 306.77 1024.37 306.512 1023.57 306.512C1022.77 306.512 1022.11 306.77 1021.59 307.286C1021.07 307.802 1020.81 308.534 1020.81 309.482V309.644C1020.81 310.604 1021.07 311.342 1021.59 311.858C1022.11 312.374 1022.77 312.632 1023.57 312.632ZM1030.51 314V301.4H1032.36V314H1030.51ZM1039.27 314.252C1038.38 314.252 1037.59 314.072 1036.89 313.712C1036.21 313.34 1035.67 312.812 1035.27 312.128C1034.88 311.444 1034.68 310.634 1034.68 309.698V309.428C1034.68 308.492 1034.88 307.688 1035.27 307.016C1035.67 306.332 1036.21 305.804 1036.89 305.432C1037.59 305.06 1038.38 304.874 1039.27 304.874C1040.16 304.874 1040.95 305.06 1041.65 305.432C1042.34 305.804 1042.89 306.332 1043.28 307.016C1043.68 307.688 1043.88 308.492 1043.88 309.428V309.698C1043.88 310.634 1043.68 311.444 1043.28 312.128C1042.89 312.812 1042.34 313.34 1041.65 313.712C1040.95 314.072 1040.16 314.252 1039.27 314.252ZM1039.27 312.596C1040.09 312.596 1040.75 312.338 1041.25 311.822C1041.77 311.294 1042.02 310.568 1042.02 309.644V309.482C1042.02 308.558 1041.77 307.838 1041.27 307.322C1040.76 306.794 1040.1 306.53 1039.27 306.53C1038.47 306.53 1037.81 306.794 1037.29 307.322C1036.79 307.838 1036.53 308.558 1036.53 309.482V309.644C1036.53 310.568 1036.79 311.294 1037.29 311.822C1037.81 312.338 1038.47 312.596 1039.27 312.596ZM1047.21 317.6V315.98H1052.16C1052.5 315.98 1052.67 315.8 1052.67 315.44V312.704H1052.38C1052.27 312.944 1052.1 313.178 1051.87 313.406C1051.66 313.622 1051.36 313.802 1050.99 313.946C1050.62 314.09 1050.15 314.162 1049.59 314.162C1048.92 314.162 1048.32 314.012 1047.79 313.712C1047.26 313.412 1046.85 312.986 1046.55 312.434C1046.25 311.882 1046.1 311.228 1046.1 310.472V305.126H1047.95V310.328C1047.95 311.096 1048.14 311.666 1048.53 312.038C1048.91 312.398 1049.44 312.578 1050.13 312.578C1050.88 312.578 1051.49 312.326 1051.95 311.822C1052.41 311.318 1052.65 310.586 1052.65 309.626V305.126H1054.5V315.818C1054.5 316.358 1054.34 316.79 1054.02 317.114C1053.7 317.438 1053.27 317.6 1052.72 317.6H1047.21Z" fill="#E6E6E6"/>
<path d="M648.252 308.267V306.539H649.944V297.395H648.252V295.667H654.642C655.398 295.667 656.058 295.799 656.622 296.063C657.186 296.315 657.624 296.681 657.936 297.161C658.26 297.629 658.422 298.187 658.422 298.835V299.015C658.422 299.591 658.314 300.065 658.098 300.437C657.882 300.809 657.618 301.097 657.306 301.301C657.006 301.505 656.718 301.649 656.442 301.733V302.021C656.718 302.093 657.012 302.237 657.324 302.453C657.648 302.657 657.918 302.945 658.134 303.317C658.362 303.689 658.476 304.175 658.476 304.775V304.955C658.476 305.651 658.314 306.245 657.99 306.737C657.666 307.229 657.216 307.607 656.64 307.871C656.076 308.135 655.422 308.267 654.678 308.267H648.252ZM651.906 306.503H654.444C655.092 306.503 655.602 306.347 655.974 306.035C656.346 305.723 656.532 305.291 656.532 304.739V304.577C656.532 304.025 656.346 303.593 655.974 303.281C655.614 302.969 655.104 302.813 654.444 302.813H651.906V306.503ZM651.906 301.031H654.444C655.056 301.031 655.548 300.881 655.92 300.581C656.292 300.269 656.478 299.849 656.478 299.321V299.141C656.478 298.613 656.292 298.199 655.92 297.899C655.56 297.587 655.068 297.431 654.444 297.431H651.906V301.031ZM664.112 308.429C663.44 308.429 662.84 308.279 662.312 307.979C661.784 307.679 661.37 307.253 661.07 306.701C660.77 306.149 660.62 305.489 660.62 304.721V299.393H662.474V304.595C662.474 305.363 662.666 305.933 663.05 306.305C663.434 306.665 663.968 306.845 664.652 306.845C665.408 306.845 666.014 306.593 666.47 306.089C666.938 305.573 667.172 304.835 667.172 303.875V299.393H669.026V308.267H667.208V306.935H666.92C666.752 307.295 666.452 307.637 666.02 307.961C665.588 308.273 664.952 308.429 664.112 308.429ZM671.766 308.267V299.393H673.62V308.267H671.766ZM672.702 298.187C672.342 298.187 672.036 298.073 671.784 297.845C671.544 297.605 671.424 297.299 671.424 296.927C671.424 296.555 671.544 296.255 671.784 296.027C672.036 295.787 672.342 295.667 672.702 295.667C673.074 295.667 673.38 295.787 673.62 296.027C673.86 296.255 673.98 296.555 673.98 296.927C673.98 297.299 673.86 297.605 673.62 297.845C673.38 298.073 673.074 298.187 672.702 298.187ZM676.372 308.267V295.667H678.226V308.267H676.372ZM684.649 308.519C683.917 308.519 683.239 308.339 682.615 307.979C681.991 307.619 681.487 307.103 681.103 306.431C680.731 305.747 680.545 304.925 680.545 303.965V303.695C680.545 302.747 680.731 301.931 681.103 301.247C681.475 300.563 681.973 300.041 682.597 299.681C683.221 299.321 683.905 299.141 684.649 299.141C685.225 299.141 685.705 299.213 686.089 299.357C686.485 299.501 686.809 299.687 687.061 299.915C687.313 300.131 687.505 300.359 687.637 300.599H687.925V295.667H689.779V308.267H687.961V307.007H687.673C687.445 307.391 687.097 307.739 686.629 308.051C686.173 308.363 685.513 308.519 684.649 308.519ZM685.171 306.899C685.975 306.899 686.635 306.641 687.151 306.125C687.679 305.609 687.943 304.871 687.943 303.911V303.749C687.943 302.801 687.685 302.069 687.169 301.553C686.653 301.037 685.987 300.779 685.171 300.779C684.379 300.779 683.719 301.037 683.191 301.553C682.675 302.069 682.417 302.801 682.417 303.749V303.911C682.417 304.871 682.675 305.609 683.191 306.125C683.719 306.641 684.379 306.899 685.171 306.899Z" fill="#E6E6E6"/>
<defs>
<filter id="filter0_di_223_2" x="0.263062" y="22.2631" width="265.911" height="265.911" filterUnits="userSpaceOnUse" color-interpolation-filters="sRGB">
<feFlood flood-opacity="0" result="BackgroundImageFix"/>
<feColorMatrix in="SourceAlpha" type="matrix" values="0 0 0 0 0 0 0 0 0 0 0 0 0 0 0 0 0 0 127 0" result="hardAlpha"/>
<feOffset dy="25"/>
<feGaussianBlur stdDeviation="18"/>
<feComposite in2="hardAlpha" operator="out"/>
<feColorMatrix type="matrix" values="0 0 0 0 0 0 0 0 0 0 0 0 0 0 0 0 0 0 0.1 0"/>
<feBlend mode="normal" in2="BackgroundImageFix" result="effect1_dropShadow_223_2"/>
<feBlend mode="normal" in="SourceGraphic" in2="effect1_dropShadow_223_2" result="shape"/>
<feColorMatrix in="SourceAlpha" type="matrix" values="0 0 0 0 0 0 0 0 0 0 0 0 0 0 0 0 0 0 127 0" result="hardAlpha"/>
<feOffset dy="4"/>
<feGaussianBlur stdDeviation="20"/>
<feComposite in2="hardAlpha" operator="arithmetic" k2="-1" k3="1"/>
<feColorMatrix type="matrix" values="0 0 0 0 0 0 0 0 0 0 0 0 0 0 0 0 0 0 1 0"/>
<feBlend mode="normal" in2="shape" result="effect2_innerShadow_223_2"/>
</filter>
<filter id="filter1_di_223_2" x="355.263" y="22.2631" width="265.911" height="265.911" filterUnits="userSpaceOnUse" color-interpolation-filters="sRGB">
<feFlood flood-opacity="0" result="BackgroundImageFix"/>
<feColorMatrix in="SourceAlpha" type="matrix" values="0 0 0 0 0 0 0 0 0 0 0 0 0 0 0 0 0 0 127 0" result="hardAlpha"/>
<feOffset dy="25"/>
<feGaussianBlur stdDeviation="18"/>
<feComposite in2="hardAlpha" operator="out"/>
<feColorMatrix type="matrix" values="0 0 0 0 0 0 0 0 0 0 0 0 0 0 0 0 0 0 0.1 0"/>
<feBlend mode="normal" in2="BackgroundImageFix" result="effect1_dropShadow_223_2"/>
<feBlend mode="normal" in="SourceGraphic" in2="effect1_dropShadow_223_2" result="shape"/>
<feColorMatrix in="SourceAlpha" type="matrix" values="0 0 0 0 0 0 0 0 0 0 0 0 0 0 0 0 0 0 127 0" result="hardAlpha"/>
<feOffset dy="4"/>
<feGaussianBlur stdDeviation="20"/>
<feComposite in2="hardAlpha" operator="arithmetic" k2="-1" k3="1"/>
<feColorMatrix type="matrix" values="0 0 0 0 0 0 0 0 0 0 0 0 0 0 0 0 0 0 1 0"/>
<feBlend mode="normal" in2="shape" result="effect2_innerShadow_223_2"/>
</filter>
<filter id="filter2_di_223_2" x="710.263" y="22.2631" width="265.911" height="265.911" filterUnits="userSpaceOnUse" color-interpolation-filters="sRGB">
<feFlood flood-opacity="0" result="BackgroundImageFix"/>
<feColorMatrix in="SourceAlpha" type="matrix" values="0 0 0 0 0 0 0 0 0 0 0 0 0 0 0 0 0 0 127 0" result="hardAlpha"/>
<feOffset dy="25"/>
<feGaussianBlur stdDeviation="18"/>
<feComposite in2="hardAlpha" operator="out"/>
<feColorMatrix type="matrix" values="0 0 0 0 0 0 0 0 0 0 0 0 0 0 0 0 0 0 0.1 0"/>
<feBlend mode="normal" in2="BackgroundImageFix" result="effect1_dropShadow_223_2"/>
<feBlend mode="normal" in="SourceGraphic" in2="effect1_dropShadow_223_2" result="shape"/>
<feColorMatrix in="SourceAlpha" type="matrix" values="0 0 0 0 0 0 0 0 0 0 0 0 0 0 0 0 0 0 127 0" result="hardAlpha"/>
<feOffset dy="4"/>
<feGaussianBlur stdDeviation="20"/>
<feComposite in2="hardAlpha" operator="arithmetic" k2="-1" k3="1"/>
<feColorMatrix type="matrix" values="0 0 0 0 0 0 0 0 0 0 0 0 0 0 0 0 0 0 1 0"/>
<feBlend mode="normal" in2="shape" result="effect2_innerShadow_223_2"/>
</filter>
<filter id="filter3_di_223_2" x="181.818" y="193.811" width="265.911" height="265.911" filterUnits="userSpaceOnUse" color-interpolation-filters="sRGB">
<feFlood flood-opacity="0" result="BackgroundImageFix"/>
<feColorMatrix in="SourceAlpha" type="matrix" values="0 0 0 0 0 0 0 0 0 0 0 0 0 0 0 0 0 0 127 0" result="hardAlpha"/>
<feOffset dy="25"/>
<feGaussianBlur stdDeviation="18"/>
<feComposite in2="hardAlpha" operator="out"/>
<feColorMatrix type="matrix" values="0 0 0 0 0 0 0 0 0 0 0 0 0 0 0 0 0 0 0.1 0"/>
<feBlend mode="normal" in2="BackgroundImageFix" result="effect1_dropShadow_223_2"/>
<feBlend mode="normal" in="SourceGraphic" in2="effect1_dropShadow_223_2" result="shape"/>
<feColorMatrix in="SourceAlpha" type="matrix" values="0 0 0 0 0 0 0 0 0 0 0 0 0 0 0 0 0 0 127 0" result="hardAlpha"/>
<feOffset dy="4"/>
<feGaussianBlur stdDeviation="20"/>
<feComposite in2="hardAlpha" operator="arithmetic" k2="-1" k3="1"/>
<feColorMatrix type="matrix" values="0 0 0 0 0 0 0 0 0 0 0 0 0 0 0 0 0 0 1 0"/>
<feBlend mode="normal" in2="shape" result="effect2_innerShadow_223_2"/>
</filter>
<filter id="filter4_di_223_2" x="536.818" y="193.811" width="265.911" height="265.911" filterUnits="userSpaceOnUse" color-interpolation-filters="sRGB">
<feFlood flood-opacity="0" result="BackgroundImageFix"/>
<feColorMatrix in="SourceAlpha" type="matrix" values="0 0 0 0 0 0 0 0 0 0 0 0 0 0 0 0 0 0 127 0" result="hardAlpha"/>
<feOffset dy="25"/>
<feGaussianBlur stdDeviation="18"/>
<feComposite in2="hardAlpha" operator="out"/>
<feColorMatrix type="matrix" values="0 0 0 0 0 0 0 0 0 0 0 0 0 0 0 0 0 0 0.1 0"/>
<feBlend mode="normal" in2="BackgroundImageFix" result="effect1_dropShadow_223_2"/>
<feBlend mode="normal" in="SourceGraphic" in2="effect1_dropShadow_223_2" result="shape"/>
<feColorMatrix in="SourceAlpha" type="matrix" values="0 0 0 0 0 0 0 0 0 0 0 0 0 0 0 0 0 0 127 0" result="hardAlpha"/>
<feOffset dy="4"/>
<feGaussianBlur stdDeviation="20"/>
<feComposite in2="hardAlpha" operator="arithmetic" k2="-1" k3="1"/>
<feColorMatrix type="matrix" values="0 0 0 0 0 0 0 0 0 0 0 0 0 0 0 0 0 0 1 0"/>
<feBlend mode="normal" in2="shape" result="effect2_innerShadow_223_2"/>
</filter>
<filter id="filter5_di_223_2" x="891.818" y="193.811" width="265.911" height="265.911" filterUnits="userSpaceOnUse" color-interpolation-filters="sRGB">
<feFlood flood-opacity="0" result="BackgroundImageFix"/>
<feColorMatrix in="SourceAlpha" type="matrix" values="0 0 0 0 0 0 0 0 0 0 0 0 0 0 0 0 0 0 127 0" result="hardAlpha"/>
<feOffset dy="25"/>
<feGaussianBlur stdDeviation="18"/>
<feComposite in2="hardAlpha" operator="out"/>
<feColorMatrix type="matrix" values="0 0 0 0 0 0 0 0 0 0 0 0 0 0 0 0 0 0 0.1 0"/>
<feBlend mode="normal" in2="BackgroundImageFix" result="effect1_dropShadow_223_2"/>
<feBlend mode="normal" in="SourceGraphic" in2="effect1_dropShadow_223_2" result="shape"/>
<feColorMatrix in="SourceAlpha" type="matrix" values="0 0 0 0 0 0 0 0 0 0 0 0 0 0 0 0 0 0 127 0" result="hardAlpha"/>
<feOffset dy="4"/>
<feGaussianBlur stdDeviation="20"/>
<feComposite in2="hardAlpha" operator="arithmetic" k2="-1" k3="1"/>
<feColorMatrix type="matrix" values="0 0 0 0 0 0 0 0 0 0 0 0 0 0 0 0 0 0 1 0"/>
<feBlend mode="normal" in2="shape" result="effect2_innerShadow_223_2"/>
</filter>
<radialGradient id="paint0_radial_223_2" cx="0" cy="0" r="1" gradientUnits="userSpaceOnUse" gradientTransform="translate(134.253 55.7483) rotate(34.2135) scale(187.011)">
<stop stop-color="#C0C0C0"/>
<stop offset="1" stop-color="#161616"/>
</radialGradient>
<radialGradient id="paint1_radial_223_2" cx="0" cy="0" r="1" gradientUnits="userSpaceOnUse" gradientTransform="translate(489.253 55.7483) rotate(34.2135) scale(187.011)">
<stop stop-color="#C0C0C0"/>
<stop offset="1" stop-color="#161616"/>
</radialGradient>
<radialGradient id="paint2_radial_223_2" cx="0" cy="0" r="1" gradientUnits="userSpaceOnUse" gradientTransform="translate(844.253 55.7483) rotate(34.2135) scale(187.011)">
<stop stop-color="#C0C0C0"/>
<stop offset="1" stop-color="#161616"/>
</radialGradient>
<radialGradient id="paint3_radial_223_2" cx="0" cy="0" r="1" gradientUnits="userSpaceOnUse" gradientTransform="translate(315.808 227.296) rotate(34.2135) scale(187.011)">
<stop stop-color="#C0C0C0"/>
<stop offset="1" stop-color="#161616"/>
</radialGradient>
<radialGradient id="paint4_radial_223_2" cx="0" cy="0" r="1" gradientUnits="userSpaceOnUse" gradientTransform="translate(670.808 227.296) rotate(34.2135) scale(187.011)">
<stop stop-color="#C0C0C0"/>
<stop offset="1" stop-color="#161616"/>
</radialGradient>
<radialGradient id="paint5_radial_223_2" cx="0" cy="0" r="1" gradientUnits="userSpaceOnUse" gradientTransform="translate(1025.81 227.296) rotate(34.2135) scale(187.011)">
<stop stop-color="#C0C0C0"/>
<stop offset="1" stop-color="#161616"/>
</radialGradient>
<radialGradient id="paint6_radial_223_2" cx="0" cy="0" r="1" gradientUnits="userSpaceOnUse" gradientTransform="translate(134.54 35.077) rotate(34.2135) scale(238.921)">
<stop stop-color="#C0C0C0"/>
<stop offset="1" stop-color="#161616"/>
</radialGradient>
<radialGradient id="paint7_radial_223_2" cx="0" cy="0" r="1" gradientUnits="userSpaceOnUse" gradientTransform="translate(489.54 35.077) rotate(34.2135) scale(238.921)">
<stop stop-color="#C0C0C0"/>
<stop offset="1" stop-color="#161616"/>
</radialGradient>
<radialGradient id="paint8_radial_223_2" cx="0" cy="0" r="1" gradientUnits="userSpaceOnUse" gradientTransform="translate(844.54 35.077) rotate(34.2135) scale(238.921)">
<stop stop-color="#C0C0C0"/>
<stop offset="1" stop-color="#161616"/>
</radialGradient>
<radialGradient id="paint9_radial_223_2" cx="0" cy="0" r="1" gradientUnits="userSpaceOnUse" gradientTransform="translate(316.095 206.625) rotate(34.2135) scale(238.921)">
<stop stop-color="#C0C0C0"/>
<stop offset="1" stop-color="#161616"/>
</radialGradient>
<radialGradient id="paint10_radial_223_2" cx="0" cy="0" r="1" gradientUnits="userSpaceOnUse" gradientTransform="translate(671.095 206.625) rotate(34.2135) scale(238.921)">
<stop stop-color="#C0C0C0"/>
<stop offset="1" stop-color="#161616"/>
</radialGradient>
<radialGradient id="paint11_radial_223_2" cx="0" cy="0" r="1" gradientUnits="userSpaceOnUse" gradientTransform="translate(1026.09 206.625) rotate(34.2135) scale(238.921)">
<stop stop-color="#C0C0C0"/>
<stop offset="1" stop-color="#161616"/>
</radialGradient>
<linearGradient id="paint12_linear_223_2" x1="209.47" y1="199.875" x2="201.572" y2="221.772" gradientUnits="userSpaceOnUse">
<stop stop-color="#194BFD"/>
<stop offset="1" stop-color="#AD13FB"/>
</linearGradient>
<linearGradient id="paint13_linear_223_2" x1="560.204" y1="199.875" x2="552.306" y2="221.772" gradientUnits="userSpaceOnUse">
<stop stop-color="#194BFD"/>
<stop offset="1" stop-color="#AD13FB"/>
</linearGradient>
<linearGradient id="paint14_linear_223_2" x1="918.236" y1="199.875" x2="910.337" y2="221.772" gradientUnits="userSpaceOnUse">
<stop stop-color="#194BFD"/>
<stop offset="1" stop-color="#AD13FB"/>
</linearGradient>
<linearGradient id="paint15_linear_223_2" x1="386.345" y1="230.76" x2="378.447" y2="208.863" gradientUnits="userSpaceOnUse">
<stop stop-color="#194BFD"/>
<stop offset="1" stop-color="#AD13FB"/>
</linearGradient>
<linearGradient id="paint16_linear_223_2" x1="737.079" y1="230.76" x2="729.181" y2="208.863" gradientUnits="userSpaceOnUse">
<stop stop-color="#194BFD"/>
<stop offset="1" stop-color="#AD13FB"/>
</linearGradient>
</defs>
</svg>
