<svg width="438" height="1180" viewBox="0 0 438 1180" fill="none" xmlns="http://www.w3.org/2000/svg">
<g filter="url(#filter0_di_223_2)">
<rect x="406.693" y="130.219" width="144.146" height="144.146" rx="12" transform="rotate(135 406.693 130.219)" fill="#0E0E10"/>
<rect x="405.986" y="130.219" width="143.146" height="143.146" rx="11.5" transform="rotate(135 405.986 130.219)" stroke="white"/>
</g>
<g filter="url(#filter1_di_223_2)">
<rect x="406.693" y="485.219" width="144.146" height="144.146" rx="12" transform="rotate(135 406.693 485.219)" fill="#0E0E10"/>
<rect x="405.986" y="485.219" width="143.146" height="143.146" rx="11.5" transform="rotate(135 405.986 485.219)" stroke="white"/>
</g>
<g filter="url(#filter2_di_223_2)">
<rect x="406.693" y="840.219" width="144.146" height="144.146" rx="12" transform="rotate(135 406.693 840.219)" fill="#0E0E10"/>
<rect x="405.986" y="840.219" width="143.146" height="143.146" rx="11.5" transform="rotate(135 405.986 840.219)" stroke="white"/>
</g>
<g filter="url(#filter3_di_223_2)">
<rect x="235.145" y="311.773" width="144.146" height="144.146" rx="12" transform="rotate(135 235.145 311.773)" fill="#0E0E10"/>
<rect x="234.438" y="311.773" width="143.146" height="143.146" rx="11.5" transform="rotate(135 234.438 311.773)" stroke="white"/>
</g>
<g filter="url(#filter4_di_223_2)">
<rect x="235.145" y="666.773" width="144.146" height="144.146" rx="12" transform="rotate(135 235.145 666.773)" fill="#0E0E10"/>
<rect x="234.438" y="666.773" width="143.146" height="143.146" rx="11.5" transform="rotate(135 234.438 666.773)" stroke="white"/>
</g>
<g filter="url(#filter5_di_223_2)">
<rect x="235.145" y="1021.77" width="144.146" height="144.146" rx="12" transform="rotate(135 235.145 1021.77)" fill="#0E0E10"/>
<rect x="234.438" y="1021.77" width="143.146" height="143.146" rx="11.5" transform="rotate(135 234.438 1021.77)" stroke="white"/>
</g>
<rect x="434.278" y="130.219" width="183.157" height="183.157" rx="17.5" transform="rotate(135 434.278 130.219)" stroke="white" stroke-dasharray="6 6"/>
<rect x="434.278" y="485.219" width="183.157" height="183.157" rx="17.5" transform="rotate(135 434.278 485.219)" stroke="white" stroke-dasharray="6 6"/>
<rect x="434.278" y="840.219" width="183.157" height="183.157" rx="17.5" transform="rotate(135 434.278 840.219)" stroke="white" stroke-dasharray="6 6"/>
<rect x="262.73" y="311.773" width="183.157" height="183.157" rx="17.5" transform="rotate(135 262.73 311.773)" stroke="white" stroke-dasharray="6 6"/>
<rect x="262.73" y="666.773" width="183.157" height="183.157" rx="17.5" transform="rotate(135 262.73 666.773)" stroke="white" stroke-dasharray="6 6"/>
<rect x="262.73" y="1021.77" width="183.157" height="183.157" rx="17.5" transform="rotate(135 262.73 1021.77)" stroke="white" stroke-dasharray="6 6"/>
<path d="M206.897 233.386C206.897 233.939 207.344 234.386 207.897 234.386H216.897C217.449 234.386 217.897 233.939 217.897 233.386C217.897 232.834 217.449 232.386 216.897 232.386H208.897V224.386C208.897 223.834 208.449 223.386 207.897 223.386C207.344 223.386 206.897 223.834 206.897 224.386V233.386ZM230.732 209.137L207.19 232.679L208.604 234.094L232.147 210.551L230.732 209.137Z" fill="url(#paint0_linear_223_2)"/>
<path d="M206.897 584.121C206.897 584.673 207.344 585.121 207.897 585.121H216.897C217.449 585.121 217.897 584.673 217.897 584.121C217.897 583.569 217.449 583.121 216.897 583.121H208.897V575.121C208.897 574.569 208.449 574.121 207.897 574.121C207.344 574.121 206.897 574.569 206.897 575.121V584.121ZM230.732 559.871L207.19 583.414L208.604 584.828L232.147 561.285L230.732 559.871Z" fill="url(#paint1_linear_223_2)"/>
<path d="M206.897 942.152C206.897 942.704 207.344 943.152 207.897 943.152H216.897C217.449 943.152 217.897 942.704 217.897 942.152C217.897 941.6 217.449 941.152 216.897 941.152H208.897V933.152C208.897 932.6 208.449 932.152 207.897 932.152C207.344 932.152 206.897 932.6 206.897 933.152V942.152ZM230.732 917.902L207.19 941.445L208.604 942.859L232.147 919.316L230.732 917.902Z" fill="url(#paint2_linear_223_2)"/>
<path d="M232.439 410.261C232.439 410.814 231.991 411.261 231.439 411.261L222.439 411.261C221.887 411.261 221.439 410.814 221.439 410.261C221.439 409.709 221.887 409.261 222.439 409.261H230.439V401.261C230.439 400.709 230.887 400.261 231.439 400.261C231.991 400.261 232.439 400.709 232.439 401.261V410.261ZM208.604 386.012L232.146 409.554L230.732 410.969L207.189 387.426L208.604 386.012Z" fill="url(#paint3_linear_223_2)"/>
<path d="M232.439 760.996C232.439 761.548 231.991 761.996 231.439 761.996H222.439C221.887 761.996 221.439 761.548 221.439 760.996C221.439 760.444 221.887 759.996 222.439 759.996H230.439V751.996C230.439 751.444 230.887 750.996 231.439 750.996C231.991 750.996 232.439 751.444 232.439 751.996V760.996ZM208.604 736.746L232.146 760.289L230.732 761.703L207.189 738.16L208.604 736.746Z" fill="url(#paint4_linear_223_2)"/>
<path d="M261.029 136.971C260.033 136.971 259.175 136.791 258.455 136.431C257.747 136.071 257.195 135.555 256.799 134.883C256.415 134.199 256.223 133.371 256.223 132.399V124.119H258.185V132.453C258.185 133.341 258.431 134.025 258.923 134.505C259.415 134.985 260.117 135.225 261.029 135.225C261.941 135.225 262.643 134.985 263.135 134.505C263.627 134.025 263.873 133.341 263.873 132.453V124.119H265.817V132.399C265.817 133.371 265.625 134.199 265.241 134.883C264.857 135.555 264.305 136.071 263.585 136.431C262.865 136.791 262.013 136.971 261.029 136.971ZM268.408 136.719V127.845H270.226V129.177H270.514C270.682 128.817 270.982 128.481 271.414 128.169C271.846 127.857 272.488 127.701 273.34 127.701C274.012 127.701 274.606 127.851 275.122 128.151C275.65 128.451 276.064 128.877 276.364 129.429C276.664 129.969 276.814 130.623 276.814 131.391V136.719H274.96V131.535C274.96 130.767 274.768 130.203 274.384 129.843C274 129.471 273.472 129.285 272.8 129.285C272.032 129.285 271.414 129.537 270.946 130.041C270.49 130.545 270.262 131.277 270.262 132.237V136.719H268.408ZM283.154 136.971C282.422 136.971 281.744 136.791 281.12 136.431C280.496 136.071 279.992 135.555 279.608 134.883C279.236 134.199 279.05 133.377 279.05 132.417V132.147C279.05 131.199 279.236 130.383 279.608 129.699C279.98 129.015 280.478 128.493 281.102 128.133C281.726 127.773 282.41 127.593 283.154 127.593C283.73 127.593 284.21 127.665 284.594 127.809C284.99 127.953 285.314 128.139 285.566 128.367C285.818 128.583 286.01 128.811 286.142 129.051H286.43V124.119H288.284V136.719H286.466V135.459H286.178C285.95 135.843 285.602 136.191 285.134 136.503C284.678 136.815 284.018 136.971 283.154 136.971ZM283.676 135.351C284.48 135.351 285.14 135.093 285.656 134.577C286.184 134.061 286.448 133.323 286.448 132.363V132.201C286.448 131.253 286.19 130.521 285.674 130.005C285.158 129.489 284.492 129.231 283.676 129.231C282.884 129.231 282.224 129.489 281.696 130.005C281.18 130.521 280.922 131.253 280.922 132.201V132.363C280.922 133.323 281.18 134.061 281.696 134.577C282.224 135.093 282.884 135.351 283.676 135.351ZM295.082 136.971C294.182 136.971 293.396 136.785 292.724 136.413C292.052 136.029 291.524 135.495 291.14 134.811C290.768 134.115 290.582 133.311 290.582 132.399V132.183C290.582 131.259 290.768 130.455 291.14 129.771C291.512 129.075 292.028 128.541 292.688 128.169C293.36 127.785 294.134 127.593 295.01 127.593C295.862 127.593 296.606 127.785 297.242 128.169C297.89 128.541 298.394 129.063 298.754 129.735C299.114 130.407 299.294 131.193 299.294 132.093V132.795H292.472C292.496 133.575 292.754 134.199 293.246 134.667C293.75 135.123 294.374 135.351 295.118 135.351C295.814 135.351 296.336 135.195 296.684 134.883C297.044 134.571 297.32 134.211 297.512 133.803L299.042 134.595C298.874 134.931 298.628 135.285 298.304 135.657C297.992 136.029 297.578 136.341 297.062 136.593C296.546 136.845 295.886 136.971 295.082 136.971ZM292.49 131.373H297.404C297.356 130.701 297.116 130.179 296.684 129.807C296.252 129.423 295.688 129.231 294.992 129.231C294.296 129.231 293.726 129.423 293.282 129.807C292.85 130.179 292.586 130.701 292.49 131.373ZM301.525 136.719V127.845H303.343V128.889H303.631C303.775 128.517 304.003 128.247 304.315 128.079C304.639 127.899 305.035 127.809 305.503 127.809H306.565V129.483H305.431C304.831 129.483 304.339 129.651 303.955 129.987C303.571 130.311 303.379 130.815 303.379 131.499V136.719H301.525ZM311.929 136.971C310.801 136.971 309.865 136.719 309.121 136.215C308.377 135.711 307.921 134.949 307.753 133.929L309.481 133.515C309.577 134.007 309.739 134.397 309.967 134.685C310.195 134.973 310.477 135.177 310.813 135.297C311.161 135.417 311.533 135.477 311.929 135.477C312.517 135.477 312.967 135.363 313.279 135.135C313.603 134.907 313.765 134.613 313.765 134.253C313.765 133.893 313.615 133.629 313.315 133.461C313.015 133.293 312.571 133.155 311.983 133.047L311.371 132.939C310.771 132.831 310.225 132.675 309.733 132.471C309.241 132.267 308.851 131.985 308.563 131.625C308.275 131.265 308.131 130.803 308.131 130.239C308.131 129.399 308.443 128.751 309.067 128.295C309.691 127.827 310.519 127.593 311.551 127.593C312.547 127.593 313.363 127.821 313.999 128.277C314.647 128.721 315.067 129.327 315.259 130.095L313.531 130.581C313.423 130.041 313.195 129.663 312.847 129.447C312.499 129.219 312.067 129.105 311.551 129.105C311.047 129.105 310.651 129.201 310.363 129.393C310.075 129.573 309.931 129.831 309.931 130.167C309.931 130.527 310.069 130.791 310.345 130.959C310.633 131.127 311.017 131.253 311.497 131.337L312.127 131.445C312.763 131.553 313.345 131.703 313.873 131.895C314.401 132.087 314.815 132.363 315.115 132.723C315.427 133.083 315.583 133.563 315.583 134.163C315.583 135.051 315.253 135.741 314.593 136.233C313.933 136.725 313.045 136.971 311.929 136.971ZM320.886 136.719C320.346 136.719 319.914 136.557 319.59 136.233C319.278 135.909 319.122 135.477 319.122 134.937V129.411H316.674V127.845H319.122V124.911H320.976V127.845H323.622V129.411H320.976V134.613C320.976 134.973 321.144 135.153 321.48 135.153H323.334V136.719H320.886ZM328.537 136.971C327.901 136.971 327.331 136.863 326.827 136.647C326.335 136.431 325.939 136.113 325.639 135.693C325.351 135.273 325.207 134.763 325.207 134.163C325.207 133.551 325.351 133.047 325.639 132.651C325.939 132.243 326.341 131.937 326.845 131.733C327.361 131.529 327.943 131.427 328.591 131.427H331.291V130.851C331.291 130.335 331.135 129.921 330.823 129.609C330.511 129.297 330.031 129.141 329.383 129.141C328.747 129.141 328.261 129.291 327.925 129.591C327.589 129.891 327.367 130.281 327.259 130.761L325.531 130.203C325.675 129.723 325.903 129.291 326.215 128.907C326.539 128.511 326.965 128.193 327.493 127.953C328.021 127.713 328.657 127.593 329.401 127.593C330.553 127.593 331.459 127.887 332.119 128.475C332.779 129.063 333.109 129.897 333.109 130.977V134.631C333.109 134.991 333.277 135.171 333.613 135.171H334.369V136.719H332.983C332.563 136.719 332.221 136.611 331.957 136.395C331.693 136.179 331.561 135.885 331.561 135.513V135.459H331.291C331.195 135.639 331.051 135.849 330.859 136.089C330.667 136.329 330.385 136.539 330.013 136.719C329.641 136.887 329.149 136.971 328.537 136.971ZM328.807 135.441C329.551 135.441 330.151 135.231 330.607 134.811C331.063 134.379 331.291 133.791 331.291 133.047V132.867H328.699C328.207 132.867 327.811 132.975 327.511 133.191C327.211 133.395 327.061 133.701 327.061 134.109C327.061 134.517 327.217 134.841 327.529 135.081C327.841 135.321 328.267 135.441 328.807 135.441ZM336.172 136.719V127.845H337.99V129.177H338.278C338.446 128.817 338.746 128.481 339.178 128.169C339.61 127.857 340.252 127.701 341.104 127.701C341.776 127.701 342.37 127.851 342.886 128.151C343.414 128.451 343.828 128.877 344.128 129.429C344.428 129.969 344.578 130.623 344.578 131.391V136.719H342.724V131.535C342.724 130.767 342.532 130.203 342.148 129.843C341.764 129.471 341.236 129.285 340.564 129.285C339.796 129.285 339.178 129.537 338.71 130.041C338.254 130.545 338.026 131.277 338.026 132.237V136.719H336.172ZM350.918 136.971C350.186 136.971 349.508 136.791 348.884 136.431C348.26 136.071 347.756 135.555 347.372 134.883C347 134.199 346.814 133.377 346.814 132.417V132.147C346.814 131.199 347 130.383 347.372 129.699C347.744 129.015 348.242 128.493 348.866 128.133C349.49 127.773 350.174 127.593 350.918 127.593C351.494 127.593 351.974 127.665 352.358 127.809C352.754 127.953 353.078 128.139 353.33 128.367C353.582 128.583 353.774 128.811 353.906 129.051H354.194V124.119H356.048V136.719H354.23V135.459H353.942C353.714 135.843 353.366 136.191 352.898 136.503C352.442 136.815 351.782 136.971 350.918 136.971ZM351.44 135.351C352.244 135.351 352.904 135.093 353.42 134.577C353.948 134.061 354.212 133.323 354.212 132.363V132.201C354.212 131.253 353.954 130.521 353.438 130.005C352.922 129.489 352.256 129.231 351.44 129.231C350.648 129.231 349.988 129.489 349.46 130.005C348.944 130.521 348.686 131.253 348.686 132.201V132.363C348.686 133.323 348.944 134.061 349.46 134.577C349.988 135.093 350.648 135.351 351.44 135.351Z" fill="#E6E6E6"/>
<path d="M286.399 491.719V480.883H282.529V479.119H292.213V480.883H288.343V491.719H286.399ZM294.029 491.719V479.119H295.883V484.105H296.171C296.291 483.877 296.459 483.655 296.675 483.439C296.903 483.223 297.197 483.049 297.557 482.917C297.929 482.773 298.397 482.701 298.961 482.701C299.633 482.701 300.227 482.851 300.743 483.151C301.271 483.451 301.685 483.877 301.985 484.429C302.285 484.969 302.435 485.623 302.435 486.391V491.719H300.581V486.535C300.581 485.767 300.389 485.203 300.005 484.843C299.621 484.471 299.093 484.285 298.421 484.285C297.653 484.285 297.035 484.537 296.567 485.041C296.111 485.545 295.883 486.277 295.883 487.237V491.719H294.029ZM305.103 491.719V482.845H306.957V491.719H305.103ZM306.039 481.639C305.679 481.639 305.373 481.525 305.121 481.297C304.881 481.057 304.761 480.751 304.761 480.379C304.761 480.007 304.881 479.707 305.121 479.479C305.373 479.239 305.679 479.119 306.039 479.119C306.411 479.119 306.717 479.239 306.957 479.479C307.197 479.707 307.317 480.007 307.317 480.379C307.317 480.751 307.197 481.057 306.957 481.297C306.717 481.525 306.411 481.639 306.039 481.639ZM309.709 491.719V482.845H311.527V484.177H311.815C311.983 483.817 312.283 483.481 312.715 483.169C313.147 482.857 313.789 482.701 314.641 482.701C315.313 482.701 315.907 482.851 316.423 483.151C316.951 483.451 317.365 483.877 317.665 484.429C317.965 484.969 318.115 485.623 318.115 486.391V491.719H316.261V486.535C316.261 485.767 316.069 485.203 315.685 484.843C315.301 484.471 314.773 484.285 314.101 484.285C313.333 484.285 312.715 484.537 312.247 485.041C311.791 485.545 311.563 486.277 311.563 487.237V491.719H309.709ZM320.783 491.719V479.119H322.637V486.301H322.925L326.417 482.845H328.883L324.401 487.147L329.027 491.719H326.579L322.925 488.029H322.637V491.719H320.783Z" fill="#E6E6E6"/>
<path d="M106.226 317.267V315.539H107.918V306.395H106.226V304.667H111.266C112.946 304.667 114.23 305.093 115.118 305.945C116.018 306.797 116.468 308.081 116.468 309.797V312.155C116.468 313.871 116.018 315.155 115.118 316.007C114.23 316.847 112.946 317.267 111.266 317.267H106.226ZM109.88 315.503H111.284C112.376 315.503 113.186 315.227 113.714 314.675C114.242 314.123 114.506 313.301 114.506 312.209V309.725C114.506 308.621 114.242 307.799 113.714 307.259C113.186 306.719 112.376 306.449 111.284 306.449H109.88V315.503ZM122.787 317.519C121.887 317.519 121.101 317.333 120.429 316.961C119.757 316.577 119.229 316.043 118.845 315.359C118.473 314.663 118.287 313.859 118.287 312.947V312.731C118.287 311.807 118.473 311.003 118.845 310.319C119.217 309.623 119.733 309.089 120.393 308.717C121.065 308.333 121.839 308.141 122.715 308.141C123.567 308.141 124.311 308.333 124.947 308.717C125.595 309.089 126.099 309.611 126.459 310.283C126.819 310.955 126.999 311.741 126.999 312.641V313.343H120.177C120.201 314.123 120.459 314.747 120.951 315.215C121.455 315.671 122.079 315.899 122.823 315.899C123.519 315.899 124.041 315.743 124.389 315.431C124.749 315.119 125.025 314.759 125.217 314.351L126.747 315.143C126.579 315.479 126.333 315.833 126.009 316.205C125.697 316.577 125.283 316.889 124.767 317.141C124.251 317.393 123.591 317.519 122.787 317.519ZM120.195 311.921H125.109C125.061 311.249 124.821 310.727 124.389 310.355C123.957 309.971 123.393 309.779 122.697 309.779C122.001 309.779 121.431 309.971 120.987 310.355C120.555 310.727 120.291 311.249 120.195 311.921ZM130.498 317.267V309.959H128.014V308.393H130.498V306.449C130.498 305.909 130.66 305.477 130.984 305.153C131.308 304.829 131.74 304.667 132.28 304.667H134.44V306.233H132.874C132.526 306.233 132.352 306.413 132.352 306.773V308.393H136.33V309.959H132.352V317.267H130.498ZM136.33 317.267V308.393H138.184V317.267H136.33ZM137.266 307.241C136.906 307.241 136.6 307.127 136.348 306.899C136.108 306.659 135.988 306.353 135.988 305.981C135.988 305.597 136.108 305.291 136.348 305.063C136.6 304.835 136.906 304.721 137.266 304.721C137.626 304.721 137.926 304.835 138.166 305.063C138.418 305.291 138.544 305.597 138.544 305.981C138.544 306.353 138.418 306.659 138.166 306.899C137.926 307.127 137.626 307.241 137.266 307.241ZM140.92 317.267V308.393H142.738V309.725H143.026C143.194 309.365 143.494 309.029 143.926 308.717C144.358 308.405 145 308.249 145.852 308.249C146.524 308.249 147.118 308.399 147.634 308.699C148.162 308.999 148.576 309.425 148.876 309.977C149.176 310.517 149.326 311.171 149.326 311.939V317.267H147.472V312.083C147.472 311.315 147.28 310.751 146.896 310.391C146.512 310.019 145.984 309.833 145.312 309.833C144.544 309.833 143.926 310.085 143.458 310.589C143.002 311.093 142.774 311.825 142.774 312.785V317.267H140.92ZM156.062 317.519C155.162 317.519 154.376 317.333 153.704 316.961C153.032 316.577 152.504 316.043 152.12 315.359C151.748 314.663 151.562 313.859 151.562 312.947V312.731C151.562 311.807 151.748 311.003 152.12 310.319C152.492 309.623 153.008 309.089 153.668 308.717C154.34 308.333 155.114 308.141 155.99 308.141C156.842 308.141 157.586 308.333 158.222 308.717C158.87 309.089 159.374 309.611 159.734 310.283C160.094 310.955 160.274 311.741 160.274 312.641V313.343H153.452C153.476 314.123 153.734 314.747 154.226 315.215C154.73 315.671 155.354 315.899 156.098 315.899C156.794 315.899 157.316 315.743 157.664 315.431C158.024 315.119 158.3 314.759 158.492 314.351L160.022 315.143C159.854 315.479 159.608 315.833 159.284 316.205C158.972 316.577 158.558 316.889 158.042 317.141C157.526 317.393 156.866 317.519 156.062 317.519ZM153.47 311.921H158.384C158.336 311.249 158.096 310.727 157.664 310.355C157.232 309.971 156.668 309.779 155.972 309.779C155.276 309.779 154.706 309.971 154.262 310.355C153.83 310.727 153.566 311.249 153.47 311.921Z" fill="#E6E6E6"/>
<path d="M290.875 836V825.164H287.005V823.4H296.689V825.164H292.819V836H290.875ZM300.832 836.252C299.932 836.252 299.146 836.066 298.474 835.694C297.802 835.31 297.274 834.776 296.89 834.092C296.518 833.396 296.332 832.592 296.332 831.68V831.464C296.332 830.54 296.518 829.736 296.89 829.052C297.262 828.356 297.778 827.822 298.438 827.45C299.11 827.066 299.884 826.874 300.76 826.874C301.612 826.874 302.356 827.066 302.992 827.45C303.64 827.822 304.144 828.344 304.504 829.016C304.864 829.688 305.044 830.474 305.044 831.374V832.076H298.222C298.246 832.856 298.504 833.48 298.996 833.948C299.5 834.404 300.124 834.632 300.868 834.632C301.564 834.632 302.086 834.476 302.434 834.164C302.794 833.852 303.07 833.492 303.262 833.084L304.792 833.876C304.624 834.212 304.378 834.566 304.054 834.938C303.742 835.31 303.328 835.622 302.812 835.874C302.296 836.126 301.636 836.252 300.832 836.252ZM298.24 830.654H303.154C303.106 829.982 302.866 829.46 302.434 829.088C302.002 828.704 301.438 828.512 300.742 828.512C300.046 828.512 299.476 828.704 299.032 829.088C298.6 829.46 298.336 829.982 298.24 830.654ZM310.912 836.252C309.784 836.252 308.848 836 308.104 835.496C307.36 834.992 306.904 834.23 306.736 833.21L308.464 832.796C308.56 833.288 308.722 833.678 308.95 833.966C309.178 834.254 309.46 834.458 309.796 834.578C310.144 834.698 310.516 834.758 310.912 834.758C311.5 834.758 311.95 834.644 312.262 834.416C312.586 834.188 312.748 833.894 312.748 833.534C312.748 833.174 312.598 832.91 312.298 832.742C311.998 832.574 311.554 832.436 310.966 832.328L310.354 832.22C309.754 832.112 309.208 831.956 308.716 831.752C308.224 831.548 307.834 831.266 307.546 830.906C307.258 830.546 307.114 830.084 307.114 829.52C307.114 828.68 307.426 828.032 308.05 827.576C308.674 827.108 309.502 826.874 310.534 826.874C311.53 826.874 312.346 827.102 312.982 827.558C313.63 828.002 314.05 828.608 314.242 829.376L312.514 829.862C312.406 829.322 312.178 828.944 311.83 828.728C311.482 828.5 311.05 828.386 310.534 828.386C310.03 828.386 309.634 828.482 309.346 828.674C309.058 828.854 308.914 829.112 308.914 829.448C308.914 829.808 309.052 830.072 309.328 830.24C309.616 830.408 310 830.534 310.48 830.618L311.11 830.726C311.746 830.834 312.328 830.984 312.856 831.176C313.384 831.368 313.798 831.644 314.098 832.004C314.41 832.364 314.566 832.844 314.566 833.444C314.566 834.332 314.236 835.022 313.576 835.514C312.916 836.006 312.028 836.252 310.912 836.252ZM319.87 836C319.33 836 318.898 835.838 318.574 835.514C318.262 835.19 318.106 834.758 318.106 834.218V828.692H315.658V827.126H318.106V824.192H319.96V827.126H322.606V828.692H319.96V833.894C319.96 834.254 320.128 834.434 320.464 834.434H322.318V836H319.87ZM240.898 861.32C239.65 861.32 238.588 861.104 237.712 860.672C236.836 860.24 236.17 859.562 235.714 858.638C235.27 857.726 235.048 856.55 235.048 855.11V849.71C235.048 848.27 235.27 847.094 235.714 846.182C236.17 845.258 236.836 844.58 237.712 844.148C238.588 843.716 239.65 843.5 240.898 843.5V845.084C239.53 845.096 238.51 845.486 237.838 846.254C237.178 847.01 236.848 848.186 236.848 849.782V855.038C236.848 856.634 237.178 857.81 237.838 858.566C238.51 859.334 239.53 859.724 240.898 859.736V861.32ZM247.084 857.252C246.088 857.252 245.23 857.072 244.51 856.712C243.802 856.352 243.25 855.836 242.854 855.164C242.47 854.48 242.278 853.652 242.278 852.68V844.4H244.24V852.734C244.24 853.622 244.486 854.306 244.978 854.786C245.47 855.266 246.172 855.506 247.084 855.506C247.996 855.506 248.698 855.266 249.19 854.786C249.682 854.306 249.928 853.622 249.928 852.734V844.4H251.872V852.68C251.872 853.652 251.68 854.48 251.296 855.164C250.912 855.836 250.36 856.352 249.64 856.712C248.92 857.072 248.068 857.252 247.084 857.252ZM258.099 857.252C256.971 857.252 256.035 857 255.291 856.496C254.547 855.992 254.091 855.23 253.923 854.21L255.651 853.796C255.747 854.288 255.909 854.678 256.137 854.966C256.365 855.254 256.647 855.458 256.983 855.578C257.331 855.698 257.703 855.758 258.099 855.758C258.687 855.758 259.137 855.644 259.449 855.416C259.773 855.188 259.935 854.894 259.935 854.534C259.935 854.174 259.785 853.91 259.485 853.742C259.185 853.574 258.741 853.436 258.153 853.328L257.541 853.22C256.941 853.112 256.395 852.956 255.903 852.752C255.411 852.548 255.021 852.266 254.733 851.906C254.445 851.546 254.301 851.084 254.301 850.52C254.301 849.68 254.613 849.032 255.237 848.576C255.861 848.108 256.689 847.874 257.721 847.874C258.717 847.874 259.533 848.102 260.169 848.558C260.817 849.002 261.237 849.608 261.429 850.376L259.701 850.862C259.593 850.322 259.365 849.944 259.017 849.728C258.669 849.5 258.237 849.386 257.721 849.386C257.217 849.386 256.821 849.482 256.533 849.674C256.245 849.854 256.101 850.112 256.101 850.448C256.101 850.808 256.239 851.072 256.515 851.24C256.803 851.408 257.187 851.534 257.667 851.618L258.297 851.726C258.933 851.834 259.515 851.984 260.043 852.176C260.571 852.368 260.985 852.644 261.285 853.004C261.597 853.364 261.753 853.844 261.753 854.444C261.753 855.332 261.423 856.022 260.763 856.514C260.103 857.006 259.215 857.252 258.099 857.252ZM267.988 857.252C267.088 857.252 266.302 857.066 265.63 856.694C264.958 856.31 264.43 855.776 264.046 855.092C263.674 854.396 263.488 853.592 263.488 852.68V852.464C263.488 851.54 263.674 850.736 264.046 850.052C264.418 849.356 264.934 848.822 265.594 848.45C266.266 848.066 267.04 847.874 267.916 847.874C268.768 847.874 269.512 848.066 270.148 848.45C270.796 848.822 271.3 849.344 271.66 850.016C272.02 850.688 272.2 851.474 272.2 852.374V853.076H265.378C265.402 853.856 265.66 854.48 266.152 854.948C266.656 855.404 267.28 855.632 268.024 855.632C268.72 855.632 269.242 855.476 269.59 855.164C269.95 854.852 270.226 854.492 270.418 854.084L271.948 854.876C271.78 855.212 271.534 855.566 271.21 855.938C270.898 856.31 270.484 856.622 269.968 856.874C269.452 857.126 268.792 857.252 267.988 857.252ZM265.396 851.654H270.31C270.262 850.982 270.022 850.46 269.59 850.088C269.158 849.704 268.594 849.512 267.898 849.512C267.202 849.512 266.632 849.704 266.188 850.088C265.756 850.46 265.492 850.982 265.396 851.654ZM274.431 857V848.126H276.249V849.17H276.537C276.681 848.798 276.909 848.528 277.221 848.36C277.545 848.18 277.941 848.09 278.409 848.09H279.471V849.764H278.337C277.737 849.764 277.245 849.932 276.861 850.268C276.477 850.592 276.285 851.096 276.285 851.78V857H274.431ZM285.926 857V844.4H293.702V846.164H287.87V849.8H293.234V851.564H287.87V857H285.926ZM299.628 857.252C298.728 857.252 297.942 857.066 297.27 856.694C296.598 856.31 296.07 855.776 295.686 855.092C295.314 854.396 295.128 853.592 295.128 852.68V852.464C295.128 851.54 295.314 850.736 295.686 850.052C296.058 849.356 296.574 848.822 297.234 848.45C297.906 848.066 298.68 847.874 299.556 847.874C300.408 847.874 301.152 848.066 301.788 848.45C302.436 848.822 302.94 849.344 303.3 850.016C303.66 850.688 303.84 851.474 303.84 852.374V853.076H297.018C297.042 853.856 297.3 854.48 297.792 854.948C298.296 855.404 298.92 855.632 299.664 855.632C300.36 855.632 300.882 855.476 301.23 855.164C301.59 854.852 301.866 854.492 302.058 854.084L303.588 854.876C303.42 855.212 303.174 855.566 302.85 855.938C302.538 856.31 302.124 856.622 301.608 856.874C301.092 857.126 300.432 857.252 299.628 857.252ZM297.036 851.654H301.95C301.902 850.982 301.662 850.46 301.23 850.088C300.798 849.704 300.234 849.512 299.538 849.512C298.842 849.512 298.272 849.704 297.828 850.088C297.396 850.46 297.132 850.982 297.036 851.654ZM310.14 857.252C309.24 857.252 308.454 857.066 307.782 856.694C307.11 856.31 306.582 855.776 306.198 855.092C305.826 854.396 305.64 853.592 305.64 852.68V852.464C305.64 851.54 305.826 850.736 306.198 850.052C306.57 849.356 307.086 848.822 307.746 848.45C308.418 848.066 309.192 847.874 310.068 847.874C310.92 847.874 311.664 848.066 312.3 848.45C312.948 848.822 313.452 849.344 313.812 850.016C314.172 850.688 314.352 851.474 314.352 852.374V853.076H307.53C307.554 853.856 307.812 854.48 308.304 854.948C308.808 855.404 309.432 855.632 310.176 855.632C310.872 855.632 311.394 855.476 311.742 855.164C312.102 854.852 312.378 854.492 312.57 854.084L314.1 854.876C313.932 855.212 313.686 855.566 313.362 855.938C313.05 856.31 312.636 856.622 312.12 856.874C311.604 857.126 310.944 857.252 310.14 857.252ZM307.548 851.654H312.462C312.414 850.982 312.174 850.46 311.742 850.088C311.31 849.704 310.746 849.512 310.05 849.512C309.354 849.512 308.784 849.704 308.34 850.088C307.908 850.46 307.644 850.982 307.548 851.654ZM320.256 857.252C319.524 857.252 318.846 857.072 318.222 856.712C317.598 856.352 317.094 855.836 316.71 855.164C316.338 854.48 316.152 853.658 316.152 852.698V852.428C316.152 851.48 316.338 850.664 316.71 849.98C317.082 849.296 317.58 848.774 318.204 848.414C318.828 848.054 319.512 847.874 320.256 847.874C320.832 847.874 321.312 847.946 321.696 848.09C322.092 848.234 322.416 848.42 322.668 848.648C322.92 848.864 323.112 849.092 323.244 849.332H323.532V844.4H325.386V857H323.568V855.74H323.28C323.052 856.124 322.704 856.472 322.236 856.784C321.78 857.096 321.12 857.252 320.256 857.252ZM320.778 855.632C321.582 855.632 322.242 855.374 322.758 854.858C323.286 854.342 323.55 853.604 323.55 852.644V852.482C323.55 851.534 323.292 850.802 322.776 850.286C322.26 849.77 321.594 849.512 320.778 849.512C319.986 849.512 319.326 849.77 318.798 850.286C318.282 850.802 318.024 851.534 318.024 852.482V852.644C318.024 853.604 318.282 854.342 318.798 854.858C319.326 855.374 319.986 855.632 320.778 855.632ZM333.245 857.252C332.381 857.252 331.715 857.096 331.247 856.784C330.791 856.472 330.449 856.124 330.221 855.74H329.933V857H328.115V844.4H329.969V849.332H330.257C330.401 849.092 330.593 848.864 330.833 848.648C331.073 848.42 331.391 848.234 331.787 848.09C332.183 847.946 332.669 847.874 333.245 847.874C333.989 847.874 334.673 848.054 335.297 848.414C335.921 848.774 336.419 849.296 336.791 849.98C337.163 850.664 337.349 851.48 337.349 852.428V852.698C337.349 853.658 337.157 854.48 336.773 855.164C336.401 855.836 335.903 856.352 335.279 856.712C334.667 857.072 333.989 857.252 333.245 857.252ZM332.705 855.632C333.509 855.632 334.169 855.374 334.685 854.858C335.213 854.342 335.477 853.604 335.477 852.644V852.482C335.477 851.534 335.219 850.802 334.703 850.286C334.187 849.77 333.521 849.512 332.705 849.512C331.913 849.512 331.253 849.77 330.725 850.286C330.209 850.802 329.951 851.534 329.951 852.482V852.644C329.951 853.604 330.209 854.342 330.725 854.858C331.253 855.374 331.913 855.632 332.705 855.632ZM342.4 857.252C341.764 857.252 341.194 857.144 340.69 856.928C340.198 856.712 339.802 856.394 339.502 855.974C339.214 855.554 339.07 855.044 339.07 854.444C339.07 853.832 339.214 853.328 339.502 852.932C339.802 852.524 340.204 852.218 340.708 852.014C341.224 851.81 341.806 851.708 342.454 851.708H345.154V851.132C345.154 850.616 344.998 850.202 344.686 849.89C344.374 849.578 343.894 849.422 343.246 849.422C342.61 849.422 342.124 849.572 341.788 849.872C341.452 850.172 341.23 850.562 341.122 851.042L339.394 850.484C339.538 850.004 339.766 849.572 340.078 849.188C340.402 848.792 340.828 848.474 341.356 848.234C341.884 847.994 342.52 847.874 343.264 847.874C344.416 847.874 345.322 848.168 345.982 848.756C346.642 849.344 346.972 850.178 346.972 851.258V854.912C346.972 855.272 347.14 855.452 347.476 855.452H348.232V857H346.846C346.426 857 346.084 856.892 345.82 856.676C345.556 856.46 345.424 856.166 345.424 855.794V855.74H345.154C345.058 855.92 344.914 856.13 344.722 856.37C344.53 856.61 344.248 856.82 343.876 857C343.504 857.168 343.012 857.252 342.4 857.252ZM342.67 855.722C343.414 855.722 344.014 855.512 344.47 855.092C344.926 854.66 345.154 854.072 345.154 853.328V853.148H342.562C342.07 853.148 341.674 853.256 341.374 853.472C341.074 853.676 340.924 853.982 340.924 854.39C340.924 854.798 341.08 855.122 341.392 855.362C341.704 855.602 342.13 855.722 342.67 855.722ZM353.946 857.252C353.094 857.252 352.32 857.072 351.624 856.712C350.94 856.352 350.394 855.83 349.986 855.146C349.59 854.462 349.392 853.64 349.392 852.68V852.446C349.392 851.486 349.59 850.67 349.986 849.998C350.394 849.314 350.94 848.792 351.624 848.432C352.32 848.06 353.094 847.874 353.946 847.874C354.798 847.874 355.524 848.03 356.124 848.342C356.724 848.654 357.204 849.068 357.564 849.584C357.936 850.1 358.176 850.67 358.284 851.294L356.484 851.672C356.424 851.276 356.298 850.916 356.106 850.592C355.914 850.268 355.644 850.01 355.296 849.818C354.948 849.626 354.51 849.53 353.982 849.53C353.466 849.53 352.998 849.65 352.578 849.89C352.17 850.118 351.846 850.454 351.606 850.898C351.366 851.33 351.246 851.858 351.246 852.482V852.644C351.246 853.268 351.366 853.802 351.606 854.246C351.846 854.69 352.17 855.026 352.578 855.254C352.998 855.482 353.466 855.596 353.982 855.596C354.762 855.596 355.356 855.398 355.764 855.002C356.172 854.594 356.43 854.078 356.538 853.454L358.338 853.868C358.194 854.48 357.936 855.044 357.564 855.56C357.204 856.076 356.724 856.49 356.124 856.802C355.524 857.102 354.798 857.252 353.946 857.252ZM360.476 857V844.4H362.33V851.582H362.618L366.11 848.126H368.576L364.094 852.428L368.72 857H366.272L362.618 853.31H362.33V857H360.476ZM369.076 861.32V859.736C370.468 859.724 371.494 859.334 372.154 858.566C372.814 857.81 373.144 856.634 373.144 855.038V849.782C373.144 848.186 372.814 847.01 372.154 846.254C371.494 845.486 370.468 845.096 369.076 845.084V843.5C370.336 843.5 371.398 843.716 372.262 844.148C373.138 844.58 373.798 845.258 374.242 846.182C374.698 847.094 374.926 848.27 374.926 849.71V855.11C374.926 856.55 374.698 857.726 374.242 858.638C373.798 859.562 373.138 860.24 372.262 860.672C371.398 861.104 370.336 861.32 369.076 861.32Z" fill="#E6E6E6"/>
<path d="M97.9564 1028.03V1026.3H99.6484V1017.16H97.9564V1015.43H102.996C104.676 1015.43 105.96 1015.86 106.848 1016.71C107.748 1017.56 108.198 1018.84 108.198 1020.56V1022.92C108.198 1024.63 107.748 1025.92 106.848 1026.77C105.96 1027.61 104.676 1028.03 102.996 1028.03H97.9564ZM101.61 1026.27H103.014C104.106 1026.27 104.916 1025.99 105.444 1025.44C105.972 1024.89 106.236 1024.06 106.236 1022.97V1020.49C106.236 1019.38 105.972 1018.56 105.444 1018.02C104.916 1017.48 104.106 1017.21 103.014 1017.21H101.61V1026.27ZM114.517 1028.28C113.617 1028.28 112.831 1028.1 112.159 1027.72C111.487 1027.34 110.959 1026.81 110.575 1026.12C110.203 1025.43 110.017 1024.62 110.017 1023.71V1023.49C110.017 1022.57 110.203 1021.77 110.575 1021.08C110.947 1020.39 111.463 1019.85 112.123 1019.48C112.795 1019.1 113.569 1018.9 114.445 1018.9C115.297 1018.9 116.041 1019.1 116.677 1019.48C117.325 1019.85 117.829 1020.37 118.189 1021.05C118.549 1021.72 118.729 1022.5 118.729 1023.4V1024.11H111.907C111.931 1024.89 112.189 1025.51 112.681 1025.98C113.185 1026.43 113.809 1026.66 114.553 1026.66C115.249 1026.66 115.771 1026.51 116.119 1026.19C116.479 1025.88 116.755 1025.52 116.947 1025.11L118.477 1025.91C118.309 1026.24 118.063 1026.6 117.739 1026.97C117.427 1027.34 117.013 1027.65 116.497 1027.9C115.981 1028.16 115.321 1028.28 114.517 1028.28ZM111.925 1022.68H116.839C116.791 1022.01 116.551 1021.49 116.119 1021.12C115.687 1020.73 115.123 1020.54 114.427 1020.54C113.731 1020.54 113.161 1020.73 112.717 1021.12C112.285 1021.49 112.021 1022.01 111.925 1022.68ZM120.961 1031.63V1019.16H122.779V1020.43H123.067C123.295 1020.04 123.637 1019.68 124.093 1019.37C124.561 1019.06 125.227 1018.9 126.091 1018.9C126.835 1018.9 127.513 1019.08 128.125 1019.44C128.749 1019.8 129.247 1020.33 129.619 1021.01C130.003 1021.68 130.195 1022.5 130.195 1023.46V1023.73C130.195 1024.69 130.009 1025.51 129.637 1026.19C129.265 1026.87 128.767 1027.38 128.143 1027.74C127.519 1028.1 126.835 1028.28 126.091 1028.28C125.515 1028.28 125.029 1028.21 124.633 1028.07C124.237 1027.92 123.919 1027.74 123.679 1027.53C123.439 1027.3 123.247 1027.06 123.103 1026.82H122.815V1031.63H120.961ZM125.551 1026.66C126.367 1026.66 127.033 1026.4 127.549 1025.89C128.065 1025.37 128.323 1024.63 128.323 1023.67V1023.51C128.323 1022.56 128.059 1021.83 127.531 1021.32C127.015 1020.8 126.355 1020.54 125.551 1020.54C124.759 1020.54 124.099 1020.8 123.571 1021.32C123.055 1021.83 122.797 1022.56 122.797 1023.51V1023.67C122.797 1024.63 123.055 1025.37 123.571 1025.89C124.099 1026.4 124.759 1026.66 125.551 1026.66ZM132.492 1028.03V1015.43H134.346V1028.03H132.492ZM141.255 1028.28C140.367 1028.28 139.575 1028.1 138.879 1027.74C138.195 1027.37 137.655 1026.84 137.259 1026.16C136.863 1025.47 136.665 1024.66 136.665 1023.73V1023.46C136.665 1022.52 136.863 1021.72 137.259 1021.05C137.655 1020.36 138.195 1019.83 138.879 1019.46C139.575 1019.09 140.367 1018.9 141.255 1018.9C142.143 1018.9 142.935 1019.09 143.631 1019.46C144.327 1019.83 144.873 1020.36 145.269 1021.05C145.665 1021.72 145.863 1022.52 145.863 1023.46V1023.73C145.863 1024.66 145.665 1025.47 145.269 1026.16C144.873 1026.84 144.327 1027.37 143.631 1027.74C142.935 1028.1 142.143 1028.28 141.255 1028.28ZM141.255 1026.63C142.071 1026.63 142.731 1026.37 143.235 1025.85C143.751 1025.32 144.009 1024.6 144.009 1023.67V1023.51C144.009 1022.59 143.757 1021.87 143.253 1021.35C142.749 1020.82 142.083 1020.56 141.255 1020.56C140.451 1020.56 139.791 1020.82 139.275 1021.35C138.771 1021.87 138.519 1022.59 138.519 1023.51V1023.67C138.519 1024.6 138.771 1025.32 139.275 1025.85C139.791 1026.37 140.451 1026.63 141.255 1026.63ZM149.198 1031.63V1030.01H154.148C154.484 1030.01 154.652 1029.83 154.652 1029.47V1026.73H154.364C154.256 1026.97 154.088 1027.21 153.86 1027.44C153.644 1027.65 153.35 1027.83 152.978 1027.98C152.606 1028.12 152.138 1028.19 151.574 1028.19C150.902 1028.19 150.302 1028.04 149.774 1027.74C149.246 1027.44 148.832 1027.02 148.532 1026.46C148.232 1025.91 148.082 1025.26 148.082 1024.5V1019.16H149.936V1024.36C149.936 1025.13 150.128 1025.7 150.512 1026.07C150.896 1026.43 151.43 1026.61 152.114 1026.61C152.87 1026.61 153.476 1026.36 153.932 1025.85C154.4 1025.35 154.634 1024.62 154.634 1023.66V1019.16H156.488V1029.85C156.488 1030.39 156.326 1030.82 156.002 1031.14C155.69 1031.47 155.258 1031.63 154.706 1031.63H149.198Z" fill="#E6E6E6"/>
<path d="M112.238 672.267V670.539H113.93V661.395H112.238V659.667H118.628C119.384 659.667 120.044 659.799 120.608 660.063C121.172 660.315 121.61 660.681 121.922 661.161C122.246 661.629 122.408 662.187 122.408 662.835V663.015C122.408 663.591 122.3 664.065 122.084 664.437C121.868 664.809 121.604 665.097 121.292 665.301C120.992 665.505 120.704 665.649 120.428 665.733V666.021C120.704 666.093 120.998 666.237 121.31 666.453C121.634 666.657 121.904 666.945 122.12 667.317C122.348 667.689 122.462 668.175 122.462 668.775V668.955C122.462 669.651 122.3 670.245 121.976 670.737C121.652 671.229 121.202 671.607 120.626 671.871C120.062 672.135 119.408 672.267 118.664 672.267H112.238ZM115.892 670.503H118.43C119.078 670.503 119.588 670.347 119.96 670.035C120.332 669.723 120.518 669.291 120.518 668.739V668.577C120.518 668.025 120.332 667.593 119.96 667.281C119.6 666.969 119.09 666.813 118.43 666.813H115.892V670.503ZM115.892 665.031H118.43C119.042 665.031 119.534 664.881 119.906 664.581C120.278 664.269 120.464 663.849 120.464 663.321V663.141C120.464 662.613 120.278 662.199 119.906 661.899C119.546 661.587 119.054 661.431 118.43 661.431H115.892V665.031ZM128.097 672.429C127.425 672.429 126.825 672.279 126.297 671.979C125.769 671.679 125.355 671.253 125.055 670.701C124.755 670.149 124.605 669.489 124.605 668.721V663.393H126.459V668.595C126.459 669.363 126.651 669.933 127.035 670.305C127.419 670.665 127.953 670.845 128.637 670.845C129.393 670.845 129.999 670.593 130.455 670.089C130.923 669.573 131.157 668.835 131.157 667.875V663.393H133.011V672.267H131.193V670.935H130.905C130.737 671.295 130.437 671.637 130.005 671.961C129.573 672.273 128.937 672.429 128.097 672.429ZM135.752 672.267V663.393H137.606V672.267H135.752ZM136.688 662.187C136.328 662.187 136.022 662.073 135.77 661.845C135.53 661.605 135.41 661.299 135.41 660.927C135.41 660.555 135.53 660.255 135.77 660.027C136.022 659.787 136.328 659.667 136.688 659.667C137.06 659.667 137.366 659.787 137.606 660.027C137.846 660.255 137.966 660.555 137.966 660.927C137.966 661.299 137.846 661.605 137.606 661.845C137.366 662.073 137.06 662.187 136.688 662.187ZM140.357 672.267V659.667H142.211V672.267H140.357ZM148.635 672.519C147.903 672.519 147.225 672.339 146.601 671.979C145.977 671.619 145.473 671.103 145.089 670.431C144.717 669.747 144.531 668.925 144.531 667.965V667.695C144.531 666.747 144.717 665.931 145.089 665.247C145.461 664.563 145.959 664.041 146.583 663.681C147.207 663.321 147.891 663.141 148.635 663.141C149.211 663.141 149.691 663.213 150.075 663.357C150.471 663.501 150.795 663.687 151.047 663.915C151.299 664.131 151.491 664.359 151.623 664.599H151.911V659.667H153.765V672.267H151.947V671.007H151.659C151.431 671.391 151.083 671.739 150.615 672.051C150.159 672.363 149.499 672.519 148.635 672.519ZM149.157 670.899C149.961 670.899 150.621 670.641 151.137 670.125C151.665 669.609 151.929 668.871 151.929 667.911V667.749C151.929 666.801 151.671 666.069 151.155 665.553C150.639 665.037 149.973 664.779 149.157 664.779C148.365 664.779 147.705 665.037 147.177 665.553C146.661 666.069 146.403 666.801 146.403 667.749V667.911C146.403 668.871 146.661 669.609 147.177 670.125C147.705 670.641 148.365 670.899 149.157 670.899Z" fill="#E6E6E6"/>
<defs>
<filter id="filter0_di_223_2" x="171.811" y="22.2631" width="265.911" height="265.911" filterUnits="userSpaceOnUse" color-interpolation-filters="sRGB">
<feFlood flood-opacity="0" result="BackgroundImageFix"/>
<feColorMatrix in="SourceAlpha" type="matrix" values="0 0 0 0 0 0 0 0 0 0 0 0 0 0 0 0 0 0 127 0" result="hardAlpha"/>
<feOffset dy="25"/>
<feGaussianBlur stdDeviation="18"/>
<feComposite in2="hardAlpha" operator="out"/>
<feColorMatrix type="matrix" values="0 0 0 0 0 0 0 0 0 0 0 0 0 0 0 0 0 0 0.1 0"/>
<feBlend mode="normal" in2="BackgroundImageFix" result="effect1_dropShadow_223_2"/>
<feBlend mode="normal" in="SourceGraphic" in2="effect1_dropShadow_223_2" result="shape"/>
<feColorMatrix in="SourceAlpha" type="matrix" values="0 0 0 0 0 0 0 0 0 0 0 0 0 0 0 0 0 0 127 0" result="hardAlpha"/>
<feOffset dy="4"/>
<feGaussianBlur stdDeviation="20"/>
<feComposite in2="hardAlpha" operator="arithmetic" k2="-1" k3="1"/>
<feColorMatrix type="matrix" values="0 0 0 0 0 0 0 0 0 0 0 0 0 0 0 0 0 0 1 0"/>
<feBlend mode="normal" in2="shape" result="effect2_innerShadow_223_2"/>
</filter>
<filter id="filter1_di_223_2" x="171.811" y="377.263" width="265.911" height="265.911" filterUnits="userSpaceOnUse" color-interpolation-filters="sRGB">
<feFlood flood-opacity="0" result="BackgroundImageFix"/>
<feColorMatrix in="SourceAlpha" type="matrix" values="0 0 0 0 0 0 0 0 0 0 0 0 0 0 0 0 0 0 127 0" result="hardAlpha"/>
<feOffset dy="25"/>
<feGaussianBlur stdDeviation="18"/>
<feComposite in2="hardAlpha" operator="out"/>
<feColorMatrix type="matrix" values="0 0 0 0 0 0 0 0 0 0 0 0 0 0 0 0 0 0 0.1 0"/>
<feBlend mode="normal" in2="BackgroundImageFix" result="effect1_dropShadow_223_2"/>
<feBlend mode="normal" in="SourceGraphic" in2="effect1_dropShadow_223_2" result="shape"/>
<feColorMatrix in="SourceAlpha" type="matrix" values="0 0 0 0 0 0 0 0 0 0 0 0 0 0 0 0 0 0 127 0" result="hardAlpha"/>
<feOffset dy="4"/>
<feGaussianBlur stdDeviation="20"/>
<feComposite in2="hardAlpha" operator="arithmetic" k2="-1" k3="1"/>
<feColorMatrix type="matrix" values="0 0 0 0 0 0 0 0 0 0 0 0 0 0 0 0 0 0 1 0"/>
<feBlend mode="normal" in2="shape" result="effect2_innerShadow_223_2"/>
</filter>
<filter id="filter2_di_223_2" x="171.811" y="732.263" width="265.911" height="265.911" filterUnits="userSpaceOnUse" color-interpolation-filters="sRGB">
<feFlood flood-opacity="0" result="BackgroundImageFix"/>
<feColorMatrix in="SourceAlpha" type="matrix" values="0 0 0 0 0 0 0 0 0 0 0 0 0 0 0 0 0 0 127 0" result="hardAlpha"/>
<feOffset dy="25"/>
<feGaussianBlur stdDeviation="18"/>
<feComposite in2="hardAlpha" operator="out"/>
<feColorMatrix type="matrix" values="0 0 0 0 0 0 0 0 0 0 0 0 0 0 0 0 0 0 0.1 0"/>
<feBlend mode="normal" in2="BackgroundImageFix" result="effect1_dropShadow_223_2"/>
<feBlend mode="normal" in="SourceGraphic" in2="effect1_dropShadow_223_2" result="shape"/>
<feColorMatrix in="SourceAlpha" type="matrix" values="0 0 0 0 0 0 0 0 0 0 0 0 0 0 0 0 0 0 127 0" result="hardAlpha"/>
<feOffset dy="4"/>
<feGaussianBlur stdDeviation="20"/>
<feComposite in2="hardAlpha" operator="arithmetic" k2="-1" k3="1"/>
<feColorMatrix type="matrix" values="0 0 0 0 0 0 0 0 0 0 0 0 0 0 0 0 0 0 1 0"/>
<feBlend mode="normal" in2="shape" result="effect2_innerShadow_223_2"/>
</filter>
<filter id="filter3_di_223_2" x="0.263062" y="203.818" width="265.911" height="265.911" filterUnits="userSpaceOnUse" color-interpolation-filters="sRGB">
<feFlood flood-opacity="0" result="BackgroundImageFix"/>
<feColorMatrix in="SourceAlpha" type="matrix" values="0 0 0 0 0 0 0 0 0 0 0 0 0 0 0 0 0 0 127 0" result="hardAlpha"/>
<feOffset dy="25"/>
<feGaussianBlur stdDeviation="18"/>
<feComposite in2="hardAlpha" operator="out"/>
<feColorMatrix type="matrix" values="0 0 0 0 0 0 0 0 0 0 0 0 0 0 0 0 0 0 0.1 0"/>
<feBlend mode="normal" in2="BackgroundImageFix" result="effect1_dropShadow_223_2"/>
<feBlend mode="normal" in="SourceGraphic" in2="effect1_dropShadow_223_2" result="shape"/>
<feColorMatrix in="SourceAlpha" type="matrix" values="0 0 0 0 0 0 0 0 0 0 0 0 0 0 0 0 0 0 127 0" result="hardAlpha"/>
<feOffset dy="4"/>
<feGaussianBlur stdDeviation="20"/>
<feComposite in2="hardAlpha" operator="arithmetic" k2="-1" k3="1"/>
<feColorMatrix type="matrix" values="0 0 0 0 0 0 0 0 0 0 0 0 0 0 0 0 0 0 1 0"/>
<feBlend mode="normal" in2="shape" result="effect2_innerShadow_223_2"/>
</filter>
<filter id="filter4_di_223_2" x="0.263062" y="558.818" width="265.911" height="265.911" filterUnits="userSpaceOnUse" color-interpolation-filters="sRGB">
<feFlood flood-opacity="0" result="BackgroundImageFix"/>
<feColorMatrix in="SourceAlpha" type="matrix" values="0 0 0 0 0 0 0 0 0 0 0 0 0 0 0 0 0 0 127 0" result="hardAlpha"/>
<feOffset dy="25"/>
<feGaussianBlur stdDeviation="18"/>
<feComposite in2="hardAlpha" operator="out"/>
<feColorMatrix type="matrix" values="0 0 0 0 0 0 0 0 0 0 0 0 0 0 0 0 0 0 0.1 0"/>
<feBlend mode="normal" in2="BackgroundImageFix" result="effect1_dropShadow_223_2"/>
<feBlend mode="normal" in="SourceGraphic" in2="effect1_dropShadow_223_2" result="shape"/>
<feColorMatrix in="SourceAlpha" type="matrix" values="0 0 0 0 0 0 0 0 0 0 0 0 0 0 0 0 0 0 127 0" result="hardAlpha"/>
<feOffset dy="4"/>
<feGaussianBlur stdDeviation="20"/>
<feComposite in2="hardAlpha" operator="arithmetic" k2="-1" k3="1"/>
<feColorMatrix type="matrix" values="0 0 0 0 0 0 0 0 0 0 0 0 0 0 0 0 0 0 1 0"/>
<feBlend mode="normal" in2="shape" result="effect2_innerShadow_223_2"/>
</filter>
<filter id="filter5_di_223_2" x="0.263062" y="913.818" width="265.911" height="265.911" filterUnits="userSpaceOnUse" color-interpolation-filters="sRGB">
<feFlood flood-opacity="0" result="BackgroundImageFix"/>
<feColorMatrix in="SourceAlpha" type="matrix" values="0 0 0 0 0 0 0 0 0 0 0 0 0 0 0 0 0 0 127 0" result="hardAlpha"/>
<feOffset dy="25"/>
<feGaussianBlur stdDeviation="18"/>
<feComposite in2="hardAlpha" operator="out"/>
<feColorMatrix type="matrix" values="0 0 0 0 0 0 0 0 0 0 0 0 0 0 0 0 0 0 0.1 0"/>
<feBlend mode="normal" in2="BackgroundImageFix" result="effect1_dropShadow_223_2"/>
<feBlend mode="normal" in="SourceGraphic" in2="effect1_dropShadow_223_2" result="shape"/>
<feColorMatrix in="SourceAlpha" type="matrix" values="0 0 0 0 0 0 0 0 0 0 0 0 0 0 0 0 0 0 127 0" result="hardAlpha"/>
<feOffset dy="4"/>
<feGaussianBlur stdDeviation="20"/>
<feComposite in2="hardAlpha" operator="arithmetic" k2="-1" k3="1"/>
<feColorMatrix type="matrix" values="0 0 0 0 0 0 0 0 0 0 0 0 0 0 0 0 0 0 1 0"/>
<feBlend mode="normal" in2="shape" result="effect2_innerShadow_223_2"/>
</filter>
<linearGradient id="paint0_linear_223_2" x1="235.111" y1="206.47" x2="213.213" y2="198.572" gradientUnits="userSpaceOnUse">
<stop stop-color="#194BFD"/>
<stop offset="1" stop-color="#AD13FB"/>
</linearGradient>
<linearGradient id="paint1_linear_223_2" x1="235.111" y1="557.204" x2="213.213" y2="549.306" gradientUnits="userSpaceOnUse">
<stop stop-color="#194BFD"/>
<stop offset="1" stop-color="#AD13FB"/>
</linearGradient>
<linearGradient id="paint2_linear_223_2" x1="235.111" y1="915.236" x2="213.213" y2="907.337" gradientUnits="userSpaceOnUse">
<stop stop-color="#194BFD"/>
<stop offset="1" stop-color="#AD13FB"/>
</linearGradient>
<linearGradient id="paint3_linear_223_2" x1="204.225" y1="383.345" x2="226.123" y2="375.447" gradientUnits="userSpaceOnUse">
<stop stop-color="#194BFD"/>
<stop offset="1" stop-color="#AD13FB"/>
</linearGradient>
<linearGradient id="paint4_linear_223_2" x1="204.225" y1="734.079" x2="226.123" y2="726.181" gradientUnits="userSpaceOnUse">
<stop stop-color="#194BFD"/>
<stop offset="1" stop-color="#AD13FB"/>
</linearGradient>
</defs>
</svg>
